G04 PROTEUS GERBER X2 FILE*
%TF.GenerationSoftware,Labcenter,Proteus,8.17-SP2-Build37159*%
%TF.CreationDate,2026-08-25T02:21:57+00:00*%
%TF.FileFunction,Copper,L2,Bot*%
%TF.FilePolarity,Positive*%
%TF.Part,Single*%
%TF.SameCoordinates,{55bbd5a4-5a17-41f9-8ed7-cd56a53e8ea9}*%
%FSLAX45Y45*%
%MOMM*%
G01*
%TA.AperFunction,Conductor*%
%ADD10C,1.016000*%
%ADD11C,0.762000*%
%TA.AperFunction,NonConductor*%
%ADD12C,0.254000*%
%TA.AperFunction,ComponentPad*%
%ADD13C,2.286000*%
%ADD14C,1.524000*%
%ADD15C,1.778000*%
%ADD16C,1.270000*%
%TA.AperFunction,OtherPad,Unknown*%
%ADD17C,1.524000*%
%ADD18C,1.778000*%
%TA.AperFunction,Profile*%
%ADD19C,0.101600*%
%TD.AperFunction*%
%TA.AperFunction,NonConductor*%
G36*
X-3617920Y-3617920D02*
X+3956278Y-3617920D01*
X+3728057Y-3389699D01*
X+3692135Y-3389699D01*
X+3666735Y-3364299D01*
X+2238657Y-3364299D01*
X+1139699Y-2265341D01*
X+1139699Y-2307865D01*
X+1114299Y-2333265D01*
X+1114299Y-3174843D01*
X+809343Y-3479799D01*
X-3285843Y-3479799D01*
X-3543299Y-3222343D01*
X-3543299Y-1593156D01*
X-3285844Y-1335701D01*
X-1987147Y-1335701D01*
X-1964299Y-1312853D01*
X-1964299Y-1159157D01*
X-1864299Y-1059157D01*
X-1864299Y-583265D01*
X-1875000Y-572564D01*
X-1942135Y-639699D01*
X-2057865Y-639699D01*
X-2083265Y-614299D01*
X-2171701Y-614299D01*
X-2171701Y-864843D01*
X-2429157Y-1122299D01*
X-2862853Y-1122299D01*
X-2926353Y-1185799D01*
X-3073647Y-1185799D01*
X-3177799Y-1081647D01*
X-3177799Y-939799D01*
X-3349343Y-939799D01*
X-3606799Y-682343D01*
X-3606799Y+1551343D01*
X-3539843Y+1618299D01*
X-3367441Y+1618299D01*
X-3606799Y+1857657D01*
X-3606799Y+2301343D01*
X-3539843Y+2368299D01*
X-3315305Y+2368299D01*
X-3302605Y+2380999D01*
X-3197395Y+2380999D01*
X-3123001Y+2306605D01*
X-3123001Y+2201395D01*
X-3197395Y+2127001D01*
X-3302605Y+2127001D01*
X-3315305Y+2139701D01*
X-3378201Y+2139701D01*
X-3378201Y+1952343D01*
X-3376999Y+1951141D01*
X-3376999Y+2052605D01*
X-3302605Y+2126999D01*
X-3197395Y+2126999D01*
X-3184695Y+2114299D01*
X-2603343Y+2114299D01*
X-2587343Y+2130299D01*
X-2065305Y+2130299D01*
X-2052605Y+2142999D01*
X-1947395Y+2142999D01*
X-1873001Y+2068605D01*
X-1873001Y+1963395D01*
X-1947395Y+1889001D01*
X-2052605Y+1889001D01*
X-2065305Y+1901701D01*
X-2492657Y+1901701D01*
X-2508657Y+1885701D01*
X-3184695Y+1885701D01*
X-3197395Y+1873001D01*
X-3298859Y+1873001D01*
X-3254657Y+1828799D01*
X-2492657Y+1828799D01*
X-2476500Y+1812642D01*
X-2460343Y+1828799D01*
X-1384299Y+1828799D01*
X-1384299Y+1952343D01*
X-1364299Y+1972343D01*
X-1364299Y+2414774D01*
X-1402399Y+2452874D01*
X-1402399Y+2579126D01*
X-1365324Y+2616201D01*
X-1650676Y+2616201D01*
X-1597601Y+2563126D01*
X-1597601Y+2436874D01*
X-1686874Y+2347601D01*
X-1813126Y+2347601D01*
X-1851226Y+2385701D01*
X-2015843Y+2385701D01*
X-2082799Y+2452657D01*
X-2082799Y+2616201D01*
X-2106843Y+2616201D01*
X-2364299Y+2873657D01*
X-2364299Y+3240059D01*
X-2468657Y+3135701D01*
X-3166735Y+3135701D01*
X-3179436Y+3123000D01*
X-3110301Y+3053865D01*
X-3110301Y+3017943D01*
X-2706657Y+2614299D01*
X-2351226Y+2614299D01*
X-2313126Y+2652399D01*
X-2186874Y+2652399D01*
X-2097601Y+2563126D01*
X-2097601Y+2436874D01*
X-2186874Y+2347601D01*
X-2313126Y+2347601D01*
X-2351226Y+2385701D01*
X-2801343Y+2385701D01*
X-3271943Y+2856301D01*
X-3307865Y+2856301D01*
X-3333265Y+2881701D01*
X-3539843Y+2881701D01*
X-3606799Y+2948657D01*
X-3606799Y+6206843D01*
X-3349343Y+6464299D01*
X-1667157Y+6464299D01*
X-1409701Y+6206843D01*
X-1409701Y+5702299D01*
X-786657Y+5702299D01*
X-714656Y+5630298D01*
X-351227Y+5630298D01*
X-313126Y+5668399D01*
X-186874Y+5668399D01*
X-148774Y+5630299D01*
X+668343Y+5630299D01*
X+809344Y+5489298D01*
X+1148773Y+5489298D01*
X+1186874Y+5527399D01*
X+1313126Y+5527399D01*
X+1351226Y+5489299D01*
X+1922343Y+5489299D01*
X+2750000Y+4661642D01*
X+2965156Y+4876798D01*
X+3534844Y+4876798D01*
X+3771943Y+4639699D01*
X+3807865Y+4639699D01*
X+3889699Y+4557865D01*
X+3889699Y+4442135D01*
X+3864299Y+4416735D01*
X+3864299Y+4111343D01*
X+3987843Y+3987799D01*
X+4021062Y+3987799D01*
X+4088017Y+3920843D01*
X+4640561Y+3368299D01*
X+4916735Y+3368299D01*
X+4929436Y+3381000D01*
X+4860301Y+3450135D01*
X+4860301Y+3486057D01*
X+4521201Y+3825157D01*
X+4521201Y+4013201D01*
X+4202657Y+4013201D01*
X+4135701Y+4080157D01*
X+4135701Y+4400735D01*
X+4110301Y+4426135D01*
X+4110301Y+4541865D01*
X+4192135Y+4623699D01*
X+4307865Y+4623699D01*
X+4389699Y+4541865D01*
X+4389699Y+4426135D01*
X+4364299Y+4400735D01*
X+4364299Y+4241799D01*
X+4588157Y+4241799D01*
X+4710657Y+4364299D01*
X+5166735Y+4364299D01*
X+5192135Y+4389699D01*
X+5307865Y+4389699D01*
X+5377000Y+4320564D01*
X+5446135Y+4389699D01*
X+5561865Y+4389699D01*
X+5643699Y+4307865D01*
X+5643699Y+4192135D01*
X+5618299Y+4166735D01*
X+5618299Y+4047343D01*
X+5771943Y+3893699D01*
X+5807865Y+3893699D01*
X+5833265Y+3868299D01*
X+6143343Y+3868299D01*
X+6367920Y+3643722D01*
X+6367920Y+6617920D01*
X-3617920Y+6617920D01*
X-3617920Y-3617920D01*
G37*
%TD.AperFunction*%
%LPC*%
G36*
X+5362853Y+5864299D02*
X+4452657Y+5864299D01*
X+4228057Y+5639699D01*
X+4192135Y+5639699D01*
X+4166735Y+5614299D01*
X+3849265Y+5614299D01*
X+3807865Y+5655699D01*
X+3692135Y+5655699D01*
X+3610301Y+5573865D01*
X+3610301Y+5458135D01*
X+3692135Y+5376301D01*
X+3807865Y+5376301D01*
X+3817265Y+5385701D01*
X+4166735Y+5385701D01*
X+4192135Y+5360301D01*
X+4307865Y+5360301D01*
X+4389699Y+5442135D01*
X+4389699Y+5478057D01*
X+4547343Y+5635701D01*
X+5362853Y+5635701D01*
X+5426353Y+5572201D01*
X+5573647Y+5572201D01*
X+5677799Y+5676353D01*
X+5677799Y+5823647D01*
X+5573647Y+5927799D01*
X+5426353Y+5927799D01*
X+5362853Y+5864299D01*
G37*
G36*
X+2610301Y+5573865D02*
X+2610301Y+5458135D01*
X+2692135Y+5376301D01*
X+2807865Y+5376301D01*
X+2817265Y+5385701D01*
X+3166735Y+5385701D01*
X+3192135Y+5360301D01*
X+3228057Y+5360301D01*
X+3460657Y+5127701D01*
X+5362853Y+5127701D01*
X+5426353Y+5064201D01*
X+5573647Y+5064201D01*
X+5677799Y+5168353D01*
X+5677799Y+5315647D01*
X+5573647Y+5419799D01*
X+5426353Y+5419799D01*
X+5362853Y+5356299D01*
X+3555343Y+5356299D01*
X+3389699Y+5521943D01*
X+3389699Y+5557865D01*
X+3307865Y+5639699D01*
X+3192135Y+5639699D01*
X+3166735Y+5614299D01*
X+2849265Y+5614299D01*
X+2807865Y+5655699D01*
X+2692135Y+5655699D01*
X+2610301Y+5573865D01*
G37*
%LPD*%
%TA.AperFunction,NonConductor*%
G36*
X+6367321Y-652321D02*
X+6143343Y-876299D01*
X+5952843Y-876299D01*
X+5876642Y-952500D01*
X+5892798Y-968656D01*
X+5892798Y-3412844D01*
X+5687722Y-3617920D01*
X+6367920Y-3617920D01*
X+6367920Y-651722D01*
X+6367321Y-652321D01*
G37*
%TD.AperFunction*%
%TA.AperFunction,NonConductor*%
G36*
X-1649676Y+5638799D02*
X-1638299Y+5638799D01*
X-1638299Y+5650176D01*
X-1649676Y+5638799D01*
G37*
%TD.AperFunction*%
%TA.AperFunction,NonConductor*%
G36*
X-3378201Y+6112157D02*
X-3378201Y+3573363D01*
X-3307865Y+3643699D01*
X-3271943Y+3643699D01*
X-2987843Y+3927799D01*
X-2844799Y+3927799D01*
X-2844799Y+4925157D01*
X-3009243Y+5089601D01*
X-3063126Y+5089601D01*
X-3152399Y+5178874D01*
X-3152399Y+5305126D01*
X-3063126Y+5394399D01*
X-2936874Y+5394399D01*
X-2847601Y+5305126D01*
X-2847601Y+5251243D01*
X-2616201Y+5019843D01*
X-2616201Y+4085363D01*
X-2614299Y+4087265D01*
X-2614299Y+4269843D01*
X-2020892Y+4863250D01*
X-2146299Y+4988657D01*
X-2146299Y+5600701D01*
X-2333343Y+5600701D01*
X-2368343Y+5635701D01*
X-2898774Y+5635701D01*
X-2936874Y+5597601D01*
X-3063126Y+5597601D01*
X-3152399Y+5686874D01*
X-3152399Y+5813126D01*
X-3063126Y+5902399D01*
X-2936874Y+5902399D01*
X-2898774Y+5864299D01*
X-2273657Y+5864299D01*
X-2238657Y+5829299D01*
X-2146299Y+5829299D01*
X-2146299Y+6016343D01*
X-2079343Y+6083299D01*
X-1791557Y+6083299D01*
X-1638299Y+5930041D01*
X-1638299Y+6112157D01*
X-1761843Y+6235701D01*
X-3254657Y+6235701D01*
X-3378201Y+6112157D01*
G37*
%TD.AperFunction*%
%LPC*%
G36*
X-2847601Y+4670874D02*
X-2847601Y+4797126D01*
X-2936874Y+4886399D01*
X-3063126Y+4886399D01*
X-3152399Y+4797126D01*
X-3152399Y+4670874D01*
X-3063126Y+4581601D01*
X-2936874Y+4581601D01*
X-2847601Y+4670874D01*
G37*
%LPD*%
%TA.AperFunction,NonConductor*%
G36*
X-1917701Y+5762344D02*
X-1917701Y+5083343D01*
X-1728057Y+4893699D01*
X-1692135Y+4893699D01*
X-1666734Y+4868298D01*
X-456656Y+4868298D01*
X-240757Y+4652399D01*
X-186874Y+4652399D01*
X-148774Y+4614299D01*
X+272157Y+4614299D01*
X+397157Y+4739299D01*
X+1148774Y+4739299D01*
X+1186874Y+4777399D01*
X+1313126Y+4777399D01*
X+1402399Y+4688126D01*
X+1402399Y+4634243D01*
X+1667843Y+4368799D01*
X+2683637Y+4368799D01*
X+2610301Y+4442135D01*
X+2610301Y+4478057D01*
X+1827657Y+5260701D01*
X+1351226Y+5260701D01*
X+1313126Y+5222601D01*
X+1186874Y+5222601D01*
X+1148774Y+5260701D01*
X+714656Y+5260702D01*
X+573657Y+5401701D01*
X-148774Y+5401701D01*
X-186874Y+5363601D01*
X-313126Y+5363601D01*
X-351226Y+5401701D01*
X-809344Y+5401702D01*
X-881343Y+5473701D01*
X-1413157Y+5473701D01*
X-1476657Y+5410201D01*
X-1624274Y+5410201D01*
X-1686874Y+5347601D01*
X-1813126Y+5347601D01*
X-1902399Y+5436874D01*
X-1902399Y+5563126D01*
X-1838525Y+5627000D01*
X-1902399Y+5690874D01*
X-1902399Y+5817126D01*
X-1875533Y+5843991D01*
X-1886243Y+5854701D01*
X-1917701Y+5854701D01*
X-1917701Y+5762344D01*
G37*
%TD.AperFunction*%
%TA.AperFunction,NonConductor*%
G36*
X+2889699Y+4478057D02*
X+2889699Y+4442135D01*
X+2816363Y+4368799D01*
X+2973157Y+4368799D01*
X+3110301Y+4505943D01*
X+3110301Y+4541865D01*
X+3192135Y+4623699D01*
X+3307865Y+4623699D01*
X+3389699Y+4541865D01*
X+3389699Y+4426135D01*
X+3364299Y+4400735D01*
X+3364299Y+4111343D01*
X+4114799Y+3360843D01*
X+4114799Y+2908298D01*
X+5885701Y+2908298D01*
X+5885701Y+3184137D01*
X+5807865Y+3106301D01*
X+5692135Y+3106301D01*
X+5666735Y+3131701D01*
X+5421656Y+3131702D01*
X+5413657Y+3139701D01*
X+5083265Y+3139701D01*
X+5057865Y+3114301D01*
X+4942135Y+3114301D01*
X+4916735Y+3139701D01*
X+4545875Y+3139701D01*
X+3926375Y+3759201D01*
X+3893157Y+3759201D01*
X+3635701Y+4016657D01*
X+3635701Y+4416735D01*
X+3610301Y+4442135D01*
X+3610301Y+4478057D01*
X+3440156Y+4648202D01*
X+3059844Y+4648202D01*
X+2889699Y+4478057D01*
G37*
%TD.AperFunction*%
%TA.AperFunction,NonConductor*%
G36*
X-2385701Y+4175157D02*
X-2385701Y+4087265D01*
X-2360301Y+4061865D01*
X-2360301Y+3946135D01*
X-2429436Y+3877000D01*
X-2416735Y+3864299D01*
X-1936657Y+3864299D01*
X-1728057Y+3655699D01*
X-1692135Y+3655699D01*
X-1666735Y+3630299D01*
X-1531343Y+3630299D01*
X-1139699Y+4021943D01*
X-1139699Y+4057865D01*
X-1057865Y+4139699D01*
X-999341Y+4139699D01*
X-1245343Y+4385701D01*
X-1666735Y+4385701D01*
X-1692135Y+4360301D01*
X-1807865Y+4360301D01*
X-1889699Y+4442135D01*
X-1889699Y+4557865D01*
X-1820564Y+4627000D01*
X-1833265Y+4639701D01*
X-1921157Y+4639701D01*
X-2385701Y+4175157D01*
G37*
%TD.AperFunction*%
%TA.AperFunction,NonConductor*%
G36*
X-1679435Y+4626999D02*
X-1666735Y+4614299D01*
X-1150657Y+4614299D01*
X-651157Y+4114799D01*
X-461157Y+4114799D01*
X-460657Y+4114299D01*
X-85226Y+4114299D01*
X-47126Y+4152399D01*
X+79126Y+4152399D01*
X+117226Y+4114299D01*
X+1317843Y+4114299D01*
X+1892299Y+3539844D01*
X+1892299Y+3303941D01*
X+2195157Y+3606799D01*
X+3503323Y+3606799D01*
X+3681183Y+3428939D01*
X+3681183Y+3230459D01*
X+3771943Y+3139699D01*
X+3807865Y+3139699D01*
X+3886201Y+3061363D01*
X+3886201Y+3266157D01*
X+3135701Y+4016657D01*
X+3135701Y+4208059D01*
X+3067843Y+4140201D01*
X+1573157Y+4140201D01*
X+1240757Y+4472601D01*
X+1186874Y+4472601D01*
X+1148774Y+4510701D01*
X+491843Y+4510701D01*
X+366843Y+4385701D01*
X-148774Y+4385701D01*
X-186874Y+4347601D01*
X-313126Y+4347601D01*
X-402399Y+4436874D01*
X-402399Y+4490757D01*
X-551343Y+4639701D01*
X-1666734Y+4639701D01*
X-1679435Y+4626999D01*
G37*
%TD.AperFunction*%
%TA.AperFunction,NonConductor*%
G36*
X-860301Y+4000341D02*
X-860142Y+4000500D01*
X-860301Y+4000659D01*
X-860301Y+4000341D01*
G37*
%TD.AperFunction*%
%TA.AperFunction,NonConductor*%
G36*
X-2616201Y+3864299D02*
X-2583265Y+3864299D01*
X-2570564Y+3877000D01*
X-2616201Y+3922637D01*
X-2616201Y+3864299D01*
G37*
%TD.AperFunction*%
%TA.AperFunction,NonConductor*%
G36*
X-711201Y+3826157D02*
X-711201Y+1634843D01*
X-587657Y+1511299D01*
X+936343Y+1511299D01*
X+1155701Y+1291941D01*
X+1155701Y+1349657D01*
X+838201Y+1667157D01*
X+838201Y+1924597D01*
X+802605Y+1889001D01*
X+697395Y+1889001D01*
X+623001Y+1963395D01*
X+623001Y+1981357D01*
X+496157Y+2108201D01*
X+337403Y+2108201D01*
X+376999Y+2068605D01*
X+376999Y+1963395D01*
X+302605Y+1889001D01*
X+197395Y+1889001D01*
X+184695Y+1901701D01*
X-312956Y+1901701D01*
X-597826Y+2186571D01*
X-597826Y+2400262D01*
X-639699Y+2442135D01*
X-639699Y+2557865D01*
X-557865Y+2639699D01*
X-442135Y+2639699D01*
X-373000Y+2570564D01*
X-303865Y+2639699D01*
X-188135Y+2639699D01*
X-119000Y+2570564D01*
X-49865Y+2639699D01*
X-13943Y+2639699D01*
X+254657Y+2908299D01*
X+385701Y+2908299D01*
X+385701Y+3148774D01*
X+347601Y+3186874D01*
X+347601Y+3313126D01*
X+436874Y+3402399D01*
X+563126Y+3402399D01*
X+652399Y+3313126D01*
X+652399Y+3186874D01*
X+614299Y+3148774D01*
X+614299Y+2908299D01*
X+905157Y+2908299D01*
X+1095657Y+3098799D01*
X+1444343Y+3098799D01*
X+1634843Y+2908299D01*
X+1644137Y+2908299D01*
X+1610301Y+2942135D01*
X+1610301Y+3057865D01*
X+1635702Y+3083265D01*
X+1635702Y+3285844D01*
X+1663701Y+3313843D01*
X+1663701Y+3445157D01*
X+1223157Y+3885701D01*
X+117226Y+3885701D01*
X+79126Y+3847601D01*
X-47126Y+3847601D01*
X-85226Y+3885701D01*
X-555343Y+3885701D01*
X-555843Y+3886201D01*
X-651157Y+3886201D01*
X-711201Y+3826157D01*
G37*
%TD.AperFunction*%
%LPC*%
G36*
X+1381699Y+3196135D02*
X+1381699Y+3311865D01*
X+1299865Y+3393699D01*
X+1184135Y+3393699D01*
X+1102301Y+3311865D01*
X+1102301Y+3196135D01*
X+1184135Y+3114301D01*
X+1299865Y+3114301D01*
X+1381699Y+3196135D01*
G37*
%LPD*%
%TA.AperFunction,NonConductor*%
G36*
X+5307865Y+4110301D02*
X+5192135Y+4110301D01*
X+5166735Y+4135701D01*
X+4805343Y+4135701D01*
X+4749799Y+4080156D01*
X+4749799Y+3919843D01*
X+5021943Y+3647699D01*
X+5057865Y+3647699D01*
X+5083265Y+3622299D01*
X+5563843Y+3622299D01*
X+5571843Y+3614299D01*
X+5666735Y+3614299D01*
X+5679436Y+3627000D01*
X+5610301Y+3696135D01*
X+5610301Y+3732057D01*
X+5389701Y+3952657D01*
X+5389701Y+4166735D01*
X+5377000Y+4179436D01*
X+5307865Y+4110301D01*
G37*
%TD.AperFunction*%
%TA.AperFunction,NonConductor*%
G36*
X-3110301Y+3482057D02*
X-3110301Y+3446135D01*
X-3179436Y+3377000D01*
X-3166735Y+3364299D01*
X-2563343Y+3364299D01*
X-2389699Y+3537943D01*
X-2389699Y+3573865D01*
X-2327863Y+3635701D01*
X-2416735Y+3635701D01*
X-2442135Y+3610301D01*
X-2557865Y+3610301D01*
X-2583265Y+3635701D01*
X-2714343Y+3635701D01*
X-2777843Y+3699201D01*
X-2893157Y+3699201D01*
X-3110301Y+3482057D01*
G37*
%TD.AperFunction*%
%TA.AperFunction,NonConductor*%
G36*
X+5070564Y+3381000D02*
X+5083265Y+3368299D01*
X+5508343Y+3368299D01*
X+5516344Y+3360298D01*
X+5666735Y+3360298D01*
X+5679436Y+3373000D01*
X+5666735Y+3385701D01*
X+5477157Y+3385701D01*
X+5469157Y+3393701D01*
X+5083265Y+3393701D01*
X+5070564Y+3381000D01*
G37*
%TD.AperFunction*%
%TA.AperFunction,NonConductor*%
G36*
X-3378201Y+3319363D02*
X-3320564Y+3377000D01*
X-3378201Y+3434637D01*
X-3378201Y+3319363D01*
G37*
%TD.AperFunction*%
%TA.AperFunction,NonConductor*%
G36*
X+5820564Y+3373000D02*
X+5885701Y+3307863D01*
X+5885701Y+3385701D01*
X+5833265Y+3385701D01*
X+5820564Y+3373000D01*
G37*
%TD.AperFunction*%
%TA.AperFunction,NonConductor*%
G36*
X+1889699Y+2978056D02*
X+1889699Y+2942135D01*
X+1855863Y+2908299D01*
X+1984657Y+2908299D01*
X+2175157Y+3098799D01*
X+3412843Y+3098799D01*
X+3603343Y+2908299D01*
X+3644137Y+2908299D01*
X+3610301Y+2942135D01*
X+3610301Y+2978057D01*
X+3452585Y+3135772D01*
X+3452585Y+3334253D01*
X+3408637Y+3378201D01*
X+3315363Y+3378201D01*
X+3381699Y+3311865D01*
X+3381699Y+3196135D01*
X+3299865Y+3114301D01*
X+3184135Y+3114301D01*
X+3102301Y+3196135D01*
X+3102301Y+3311865D01*
X+3168637Y+3378201D01*
X+2289843Y+3378201D01*
X+1889699Y+2978056D01*
G37*
%TD.AperFunction*%
%TA.AperFunction,NonConductor*%
G36*
X-3378201Y+3110299D02*
X-3333265Y+3110299D01*
X-3320564Y+3123000D01*
X-3378201Y+3180637D01*
X-3378201Y+3110299D01*
G37*
%TD.AperFunction*%
%TA.AperFunction,NonConductor*%
G36*
X+3855863Y+2908299D02*
X+3886201Y+2908299D01*
X+3886201Y+2938637D01*
X+3855863Y+2908299D01*
G37*
%TD.AperFunction*%
%TA.AperFunction,NonConductor*%
G36*
X-942135Y+3860301D02*
X-978057Y+3860301D01*
X-1436657Y+3401701D01*
X-1666735Y+3401701D01*
X-1692135Y+3376301D01*
X-1807865Y+3376301D01*
X-1889699Y+3458135D01*
X-1889699Y+3494057D01*
X-2031343Y+3635701D01*
X-2172137Y+3635701D01*
X-2110301Y+3573865D01*
X-2110301Y+3458135D01*
X-2135701Y+3432735D01*
X-2135701Y+2968343D01*
X-2012157Y+2844799D01*
X-1984657Y+2844799D01*
X-1968500Y+2828642D01*
X-1952343Y+2844799D01*
X-939799Y+2844799D01*
X-939799Y+3862637D01*
X-942135Y+3860301D01*
G37*
%TD.AperFunction*%
%TA.AperFunction,NonConductor*%
G36*
X+1381699Y+2803865D02*
X+1381699Y+2688135D01*
X+1356299Y+2662735D01*
X+1356299Y+2031843D01*
X+1373001Y+2015141D01*
X+1373001Y+2068605D01*
X+1447395Y+2142999D01*
X+1552605Y+2142999D01*
X+1565305Y+2130299D01*
X+3920844Y+2130299D01*
X+3987799Y+2063344D01*
X+3987799Y+1863441D01*
X+3988657Y+1864299D01*
X+4432735Y+1864299D01*
X+4458135Y+1889699D01*
X+4573865Y+1889699D01*
X+4655699Y+1807865D01*
X+4655699Y+1692135D01*
X+4573865Y+1610301D01*
X+4458135Y+1610301D01*
X+4432735Y+1635701D01*
X+4083343Y+1635701D01*
X+4022442Y+1574799D01*
X+4356843Y+1574799D01*
X+4614299Y+1317344D01*
X+4614299Y+833265D01*
X+4639699Y+807865D01*
X+4639699Y+692135D01*
X+4589449Y+641885D01*
X+4711701Y+641885D01*
X+4711701Y+2044701D01*
X+4032400Y+2044701D01*
X+3965445Y+2111657D01*
X+3798868Y+2278234D01*
X+3548124Y+2278234D01*
X+3220057Y+2606301D01*
X+3184135Y+2606301D01*
X+3102301Y+2688135D01*
X+3102301Y+2803865D01*
X+3168637Y+2870201D01*
X+2269843Y+2870201D01*
X+2079343Y+2679701D01*
X+1540157Y+2679701D01*
X+1349657Y+2870201D01*
X+1315363Y+2870201D01*
X+1381699Y+2803865D01*
G37*
%TD.AperFunction*%
%TA.AperFunction,NonConductor*%
G36*
X-1854201Y+2614299D02*
X-1851226Y+2614299D01*
X-1849324Y+2616201D01*
X-1854201Y+2616201D01*
X-1854201Y+2614299D01*
G37*
%TD.AperFunction*%
%TA.AperFunction,NonConductor*%
G36*
X+5820564Y+3627000D02*
X+5833265Y+3614299D01*
X+6047343Y+3614299D01*
X+6114299Y+3547343D01*
X+6114299Y+2702657D01*
X+5889699Y+2478057D01*
X+5889699Y+2442135D01*
X+5807865Y+2360301D01*
X+5692135Y+2360301D01*
X+5610301Y+2442135D01*
X+5610301Y+2557865D01*
X+5692135Y+2639699D01*
X+5728058Y+2639699D01*
X+5768060Y+2679701D01*
X+4016656Y+2679702D01*
X+4000500Y+2695858D01*
X+3984343Y+2679701D01*
X+3508657Y+2679701D01*
X+3318157Y+2870201D01*
X+3315363Y+2870201D01*
X+3381699Y+2803865D01*
X+3381699Y+2767943D01*
X+3642811Y+2506832D01*
X+3893554Y+2506832D01*
X+4127087Y+2273299D01*
X+4405522Y+2273299D01*
X+4405522Y+2333164D01*
X+4594301Y+2521943D01*
X+4594301Y+2557865D01*
X+4676135Y+2639699D01*
X+4791865Y+2639699D01*
X+4873699Y+2557865D01*
X+4873699Y+2442135D01*
X+4791865Y+2360301D01*
X+4755943Y+2360301D01*
X+4668941Y+2273299D01*
X+4873344Y+2273299D01*
X+4940299Y+2206344D01*
X+4940299Y+1601941D01*
X+5110301Y+1771943D01*
X+5110301Y+1807865D01*
X+5192135Y+1889699D01*
X+5307865Y+1889699D01*
X+5389699Y+1807865D01*
X+5389699Y+1692135D01*
X+5307865Y+1610301D01*
X+5271943Y+1610301D01*
X+5130799Y+1469157D01*
X+5130799Y+812363D01*
X+5192135Y+873699D01*
X+5307865Y+873699D01*
X+5333265Y+848299D01*
X+5345844Y+848299D01*
X+5473701Y+720441D01*
X+5473701Y+885343D01*
X+5610301Y+1021943D01*
X+5610301Y+1057865D01*
X+5692135Y+1139699D01*
X+5807865Y+1139699D01*
X+5889699Y+1057865D01*
X+5889699Y+942135D01*
X+5807865Y+860301D01*
X+5771943Y+860301D01*
X+5702299Y+790657D01*
X+5702299Y-778157D01*
X+5715000Y-790858D01*
X+5858157Y-647701D01*
X+6048657Y-647701D01*
X+6172201Y-524157D01*
X+6172201Y+3516157D01*
X+6048657Y+3639701D01*
X+5833265Y+3639701D01*
X+5820564Y+3627000D01*
G37*
%TD.AperFunction*%
%TA.AperFunction,NonConductor*%
G36*
X+147699Y+2478057D02*
X+147699Y+2442135D01*
X+65865Y+2360301D01*
X-49865Y+2360301D01*
X-119000Y+2429436D01*
X-164934Y+2383502D01*
X-164934Y+2379382D01*
X-122351Y+2336799D01*
X+590843Y+2336799D01*
X+784643Y+2142999D01*
X+802605Y+2142999D01*
X+838201Y+2107403D01*
X+838201Y+2679701D01*
X+349343Y+2679701D01*
X+147699Y+2478057D01*
G37*
%TD.AperFunction*%
%TA.AperFunction,NonConductor*%
G36*
X+1552605Y+1889001D02*
X+1499141Y+1889001D01*
X+1507843Y+1880299D01*
X+2184695Y+1880299D01*
X+2197395Y+1892999D01*
X+2302605Y+1892999D01*
X+2315305Y+1880299D01*
X+3095343Y+1880299D01*
X+3356299Y+1619343D01*
X+3356299Y+827305D01*
X+3368999Y+814605D01*
X+3368999Y+796641D01*
X+3369001Y+796643D01*
X+3369001Y+814605D01*
X+3381701Y+827305D01*
X+3381701Y+1317343D01*
X+3385701Y+1321343D01*
X+3385701Y+1666735D01*
X+3360301Y+1692135D01*
X+3360301Y+1807865D01*
X+3442135Y+1889699D01*
X+3557865Y+1889699D01*
X+3639699Y+1807865D01*
X+3639699Y+1692135D01*
X+3614299Y+1666735D01*
X+3614299Y+1226657D01*
X+3610299Y+1222657D01*
X+3610299Y+827305D01*
X+3622999Y+814605D01*
X+3622999Y+709395D01*
X+3548605Y+635001D01*
X+3530643Y+635001D01*
X+3022641Y+126999D01*
X+3040605Y+126999D01*
X+3114999Y+52605D01*
X+3114999Y-52605D01*
X+3102299Y-65305D01*
X+3102299Y-386774D01*
X+3152399Y-436874D01*
X+3152399Y-563126D01*
X+3063126Y-652399D01*
X+2936874Y-652399D01*
X+2847601Y-563126D01*
X+2847601Y-436874D01*
X+2873702Y-410773D01*
X+2873702Y-65306D01*
X+2861001Y-52605D01*
X+2861001Y-34642D01*
X+2614299Y-281344D01*
X+2614299Y-416735D01*
X+2639699Y-442135D01*
X+2639699Y-557865D01*
X+2557865Y-639699D01*
X+2521943Y-639699D01*
X+2005940Y-1155702D01*
X+2147553Y-1155702D01*
X+2395105Y-908150D01*
X+2913421Y-908150D01*
X+3247502Y-574069D01*
X+3514289Y-574069D01*
X+3623001Y-465357D01*
X+3623001Y-447395D01*
X+3635701Y-434695D01*
X+3635701Y-65305D01*
X+3623001Y-52605D01*
X+3623001Y-34641D01*
X+3622999Y-34643D01*
X+3622999Y-52605D01*
X+3548605Y-126999D01*
X+3443395Y-126999D01*
X+3369001Y-52605D01*
X+3369001Y-34641D01*
X+3368999Y-34643D01*
X+3368999Y-52605D01*
X+3294605Y-126999D01*
X+3189395Y-126999D01*
X+3115001Y-52605D01*
X+3115001Y+52605D01*
X+3189395Y+126999D01*
X+3207357Y+126999D01*
X+3715359Y+635001D01*
X+3697395Y+635001D01*
X+3623001Y+709395D01*
X+3623001Y+814605D01*
X+3697395Y+888999D01*
X+3715357Y+888999D01*
X+3940657Y+1114299D01*
X+4166735Y+1114299D01*
X+4192135Y+1139699D01*
X+4228057Y+1139699D01*
X+4348358Y+1260000D01*
X+4262157Y+1346201D01*
X+3826157Y+1346201D01*
X+3759201Y+1413157D01*
X+3759201Y+1901701D01*
X+1565305Y+1901701D01*
X+1552605Y+1889001D01*
G37*
%TD.AperFunction*%
%TA.AperFunction,NonConductor*%
G36*
X+1066799Y+2746657D02*
X+1066799Y+1761843D01*
X+1384299Y+1444343D01*
X+1384299Y+1063903D01*
X+1447395Y+1126999D01*
X+1552605Y+1126999D01*
X+1565305Y+1114299D01*
X+2797343Y+1114299D01*
X+3022643Y+888999D01*
X+3040605Y+888999D01*
X+3114999Y+814605D01*
X+3114999Y+709395D01*
X+3040605Y+635001D01*
X+2935395Y+635001D01*
X+2861001Y+709395D01*
X+2861001Y+727357D01*
X+2702657Y+885701D01*
X+1614299Y+885701D01*
X+1614299Y+567265D01*
X+1639699Y+541865D01*
X+1639699Y+426135D01*
X+1557865Y+344301D01*
X+1442135Y+344301D01*
X+1384299Y+402137D01*
X+1384299Y+277343D01*
X+1614299Y+47343D01*
X+1614299Y-256059D01*
X+1823855Y-46503D01*
X+1823855Y+485497D01*
X+2123001Y+784643D01*
X+2123001Y+802605D01*
X+2197395Y+876999D01*
X+2302605Y+876999D01*
X+2376999Y+802605D01*
X+2376999Y+697395D01*
X+2364299Y+684695D01*
X+2364299Y+351226D01*
X+2402399Y+313126D01*
X+2402399Y+186874D01*
X+2313126Y+97601D01*
X+2186874Y+97601D01*
X+2097601Y+186874D01*
X+2097601Y+313126D01*
X+2135701Y+351226D01*
X+2135701Y+474059D01*
X+2052453Y+390811D01*
X+2052453Y-141189D01*
X+1639699Y-553943D01*
X+1639699Y-589865D01*
X+1557865Y-671699D01*
X+1442135Y-671699D01*
X+1416735Y-646299D01*
X+23343Y-646299D01*
X-203201Y-872844D01*
X-203201Y-1164843D01*
X-472201Y-1433843D01*
X-472201Y-1523647D01*
X-576353Y-1627799D01*
X-723647Y-1627799D01*
X-827799Y-1523647D01*
X-827799Y-1376353D01*
X-723647Y-1272201D01*
X-633843Y-1272201D01*
X-431799Y-1070157D01*
X-431799Y-939799D01*
X-781343Y-939799D01*
X-848299Y-872843D01*
X-848299Y-583265D01*
X-873699Y-557865D01*
X-873699Y-442135D01*
X-799862Y-368298D01*
X-968656Y-368298D01*
X-1135701Y-535343D01*
X-1135701Y-1112853D01*
X-1072201Y-1176353D01*
X-1072201Y-1323647D01*
X-1176353Y-1427799D01*
X-1323647Y-1427799D01*
X-1409701Y-1341745D01*
X-1409701Y-1778658D01*
X-666157Y-2522201D01*
X-576353Y-2522201D01*
X-472201Y-2626353D01*
X-472201Y-2773647D01*
X-568755Y-2870201D01*
X-364843Y-2870201D01*
X-241299Y-2746657D01*
X-241299Y-1222657D01*
X+16157Y-965201D01*
X+1873157Y-965201D01*
X+2360301Y-478057D01*
X+2360301Y-442135D01*
X+2385701Y-416735D01*
X+2385701Y-186657D01*
X+3207359Y+635001D01*
X+3189395Y+635001D01*
X+3115001Y+709395D01*
X+3115001Y+814605D01*
X+3127701Y+827305D01*
X+3127701Y+1524657D01*
X+3000657Y+1651701D01*
X+2315305Y+1651701D01*
X+2302605Y+1639001D01*
X+2197395Y+1639001D01*
X+2184695Y+1651701D01*
X+1413157Y+1651701D01*
X+1127701Y+1937157D01*
X+1127701Y+2662735D01*
X+1102301Y+2688135D01*
X+1102301Y+2782159D01*
X+1066799Y+2746657D01*
G37*
%TD.AperFunction*%
%TA.AperFunction,NonConductor*%
G36*
X-1097601Y+2579126D02*
X-1097601Y+2452874D01*
X-1135701Y+2414774D01*
X-1135701Y+1877657D01*
X-1155701Y+1857657D01*
X-1155701Y+1825343D01*
X-939799Y+1609441D01*
X-939799Y+2616201D01*
X-1134676Y+2616201D01*
X-1097601Y+2579126D01*
G37*
%TD.AperFunction*%
%TA.AperFunction,NonConductor*%
G36*
X-2362201Y+1355441D02*
X-2117441Y+1600201D01*
X-2362201Y+1600201D01*
X-2362201Y+1355441D01*
G37*
%TD.AperFunction*%
%TA.AperFunction,NonConductor*%
G36*
X+4307865Y+860301D02*
X+4192135Y+860301D01*
X+4166735Y+885701D01*
X+4035343Y+885701D01*
X+3876999Y+727357D01*
X+3876999Y+709395D01*
X+3809489Y+641885D01*
X+4410551Y+641885D01*
X+4360301Y+692135D01*
X+4360301Y+807865D01*
X+4385701Y+833265D01*
X+4385701Y+938137D01*
X+4307865Y+860301D01*
G37*
%TD.AperFunction*%
%TA.AperFunction,NonConductor*%
G36*
X-385701Y+913156D02*
X-385701Y+583265D01*
X-373000Y+570564D01*
X-360299Y+583265D01*
X-360299Y+809343D01*
X-77441Y+1092201D01*
X-206656Y+1092201D01*
X-385701Y+913156D01*
G37*
%TD.AperFunction*%
%TA.AperFunction,NonConductor*%
G36*
X+784643Y+1126999D02*
X+802605Y+1126999D01*
X+876999Y+1052605D01*
X+876999Y+947395D01*
X+802605Y+873001D01*
X+697395Y+873001D01*
X+623001Y+947395D01*
X+623001Y+965357D01*
X+496157Y+1092201D01*
X+337403Y+1092201D01*
X+376999Y+1052605D01*
X+376999Y+947395D01*
X+302605Y+873001D01*
X+197395Y+873001D01*
X+184695Y+885701D01*
X+39343Y+885701D01*
X-131701Y+714657D01*
X-131701Y+583265D01*
X-119000Y+570564D01*
X-49865Y+639699D01*
X+65865Y+639699D01*
X+86319Y+619245D01*
X+364968Y+619245D01*
X+621202Y+363011D01*
X+621202Y+268325D01*
X+213175Y-139702D01*
X+841656Y-139702D01*
X+965201Y-16157D01*
X+965201Y+1159157D01*
X+841657Y+1282701D01*
X+628941Y+1282701D01*
X+784643Y+1126999D01*
G37*
%TD.AperFunction*%
%TA.AperFunction,NonConductor*%
G36*
X+1384299Y+565863D02*
X+1385701Y+567265D01*
X+1385701Y+934695D01*
X+1384299Y+936097D01*
X+1384299Y+565863D01*
G37*
%TD.AperFunction*%
%TA.AperFunction,NonConductor*%
G36*
X-838202Y+508000D02*
X-838202Y+460656D01*
X-854358Y+444500D01*
X-714657Y+304799D01*
X-272764Y+304799D01*
X-360299Y+392334D01*
X-360299Y+416735D01*
X-373000Y+429436D01*
X-442135Y+360301D01*
X-557865Y+360301D01*
X-639699Y+442135D01*
X-639699Y+557865D01*
X-614298Y+583265D01*
X-614298Y+1007844D01*
X-339441Y+1282701D01*
X-682343Y+1282701D01*
X-838202Y+1438560D01*
X-838202Y+508000D01*
G37*
%TD.AperFunction*%
%TA.AperFunction,NonConductor*%
G36*
X+4940299Y+571500D02*
X+4940299Y+524156D01*
X+4829430Y+413287D01*
X+3816929Y+413287D01*
X+3746641Y+342998D01*
X+4651242Y+342998D01*
X+4672542Y+364298D01*
X+5135701Y+364298D01*
X+5135701Y+417657D01*
X+4940299Y+613059D01*
X+4940299Y+571500D01*
G37*
%TD.AperFunction*%
%TA.AperFunction,NonConductor*%
G36*
X+65865Y+360301D02*
X-4982Y+360301D01*
X+44208Y+311111D01*
X+44208Y+143157D01*
X-22748Y+76201D01*
X-809343Y+76201D01*
X-1016000Y+282858D01*
X-1163157Y+135701D01*
X-1632774Y+135701D01*
X-1670874Y+97601D01*
X-1777459Y+97601D01*
X-1730657Y+50799D01*
X+80392Y+50799D01*
X+345261Y+315668D01*
X+270282Y+390647D01*
X+96211Y+390647D01*
X+65865Y+360301D01*
G37*
%TD.AperFunction*%
%TA.AperFunction,NonConductor*%
G36*
X-1123001Y+1447395D02*
X-1197395Y+1373001D01*
X-1302605Y+1373001D01*
X-1315305Y+1385701D01*
X-1385701Y+1385701D01*
X-1385701Y+1101226D01*
X-1347601Y+1063126D01*
X-1347601Y+936874D01*
X-1436874Y+847601D01*
X-1563126Y+847601D01*
X-1652399Y+936874D01*
X-1652399Y+1063126D01*
X-1614299Y+1101226D01*
X-1614299Y+1385701D01*
X-2008657Y+1385701D01*
X-2171701Y+1222657D01*
X-2171701Y-385701D01*
X-2083265Y-385701D01*
X-2057865Y-360301D01*
X-1942135Y-360301D01*
X-1875000Y-427436D01*
X-1807865Y-360301D01*
X-1692135Y-360301D01*
X-1638299Y-414137D01*
X-1638299Y-177799D01*
X-1825343Y-177799D01*
X-2114299Y+111157D01*
X-2114299Y+934695D01*
X-2126999Y+947395D01*
X-2126999Y+1052605D01*
X-2052605Y+1126999D01*
X-1947395Y+1126999D01*
X-1873001Y+1052605D01*
X-1873001Y+947395D01*
X-1885701Y+934695D01*
X-1885701Y+313824D01*
X-1797126Y+402399D01*
X-1670874Y+402399D01*
X-1632774Y+364299D01*
X-1257843Y+364299D01*
X-1066798Y+555344D01*
X-1066798Y+1413156D01*
X-1123001Y+1469359D01*
X-1123001Y+1447395D01*
G37*
%TD.AperFunction*%
%TA.AperFunction,NonConductor*%
G36*
X+5364299Y+333265D02*
X+5389699Y+307865D01*
X+5389699Y+192135D01*
X+5307865Y+110301D01*
X+5192135Y+110301D01*
X+5166735Y+135701D01*
X+4767230Y+135701D01*
X+4745928Y+114400D01*
X+3815204Y+114400D01*
X+3876999Y+52605D01*
X+3876999Y-52605D01*
X+3864299Y-65305D01*
X+3864299Y-385701D01*
X+4218657Y-385701D01*
X+4373001Y-231357D01*
X+4373001Y-213395D01*
X+4447395Y-139001D01*
X+4552605Y-139001D01*
X+4626999Y-213395D01*
X+4626999Y-318605D01*
X+4552605Y-392999D01*
X+4534643Y-392999D01*
X+4313343Y-614299D01*
X+3815305Y-614299D01*
X+3802605Y-626999D01*
X+3784643Y-626999D01*
X+3608976Y-802667D01*
X+3342188Y-802667D01*
X+3008107Y-1136748D01*
X+2489791Y-1136748D01*
X+2242241Y-1384299D01*
X+301344Y-1384299D01*
X+177799Y-1507843D01*
X+177799Y-1829988D01*
X+206657Y-1801131D01*
X+436560Y-1571227D01*
X+1300651Y-1571227D01*
X+1515693Y-1786269D01*
X+1515693Y-2072051D01*
X+2079343Y-2635701D01*
X+2250687Y-2635701D01*
X+2082945Y-2467959D01*
X+2082945Y-2251413D01*
X+2084358Y-2250000D01*
X+1945253Y-2110895D01*
X+1752429Y-2110895D01*
X+1693977Y-1969779D01*
X+1936555Y-1727201D01*
X+2937157Y-1727201D01*
X+3470559Y-1193799D01*
X+3412843Y-1193799D01*
X+2976343Y-1630299D01*
X+2583265Y-1630299D01*
X+2557865Y-1655699D01*
X+2442135Y-1655699D01*
X+2360301Y-1573865D01*
X+2360301Y-1458135D01*
X+2442135Y-1376301D01*
X+2557865Y-1376301D01*
X+2583265Y-1401701D01*
X+2881657Y-1401701D01*
X+3318157Y-965201D01*
X+4130843Y-965201D01*
X+4299344Y-1133702D01*
X+4756786Y-1133702D01*
X+5071312Y-1448228D01*
X+5071312Y-1495572D01*
X+5071313Y-1869749D01*
X+5131000Y-1929436D01*
X+5143701Y-1916735D01*
X+5143701Y-1388843D01*
X+5135702Y-1380844D01*
X+5135702Y-849266D01*
X+5110301Y-823865D01*
X+5110301Y-708135D01*
X+5192135Y-626301D01*
X+5307865Y-626301D01*
X+5389699Y-708135D01*
X+5389699Y-823865D01*
X+5364299Y-849265D01*
X+5364299Y-1286157D01*
X+5372299Y-1294157D01*
X+5372299Y-1916735D01*
X+5397699Y-1942135D01*
X+5397699Y-1978057D01*
X+5593065Y-2173423D01*
X+5593065Y-2297343D01*
X+5526109Y-2364299D01*
X+2837265Y-2364299D01*
X+2811865Y-2389699D01*
X+2696135Y-2389699D01*
X+2627000Y-2320564D01*
X+2557865Y-2389699D01*
X+2442135Y-2389699D01*
X+2373000Y-2320564D01*
X+2315917Y-2377647D01*
X+2363971Y-2425701D01*
X+4587343Y-2425701D01*
X+4771943Y-2610301D01*
X+4807865Y-2610301D01*
X+4889699Y-2692135D01*
X+4889699Y-2807865D01*
X+4880299Y-2817265D01*
X+4880299Y-3166735D01*
X+4905699Y-3192135D01*
X+4905699Y-3307865D01*
X+4823865Y-3389699D01*
X+4708135Y-3389699D01*
X+4626301Y-3307865D01*
X+4626301Y-3192135D01*
X+4651701Y-3166735D01*
X+4651701Y-2849265D01*
X+4610301Y-2807865D01*
X+4610301Y-2771943D01*
X+4492657Y-2654299D01*
X+3835863Y-2654299D01*
X+3873699Y-2692135D01*
X+3873699Y-2807865D01*
X+3791865Y-2889699D01*
X+3676135Y-2889699D01*
X+3650735Y-2864299D01*
X+2061941Y-2864299D01*
X+2333343Y-3135701D01*
X+3666735Y-3135701D01*
X+3692135Y-3110301D01*
X+3807865Y-3110301D01*
X+3889699Y-3192135D01*
X+3889699Y-3228057D01*
X+4103343Y-3441701D01*
X+5540657Y-3441701D01*
X+5664202Y-3318156D01*
X+5664202Y-1063344D01*
X+5473701Y-872843D01*
X+5473701Y+397157D01*
X+5364299Y+506559D01*
X+5364299Y+333265D01*
G37*
%TD.AperFunction*%
%TA.AperFunction,NonConductor*%
G36*
X-3123001Y+1556605D02*
X-3123001Y+1451395D01*
X-3197395Y+1377001D01*
X-3302605Y+1377001D01*
X-3315305Y+1389701D01*
X-3378201Y+1389701D01*
X-3378201Y-587657D01*
X-3254657Y-711201D01*
X-2738657Y-711201D01*
X-2556156Y-893701D01*
X-2523843Y-893701D01*
X-2400299Y-770157D01*
X-2400299Y-61941D01*
X-2822201Y-483843D01*
X-2822201Y-573647D01*
X-2926353Y-677799D01*
X-3073647Y-677799D01*
X-3177799Y-573647D01*
X-3177799Y-426353D01*
X-3073647Y-322201D01*
X-2983843Y-322201D01*
X-2590799Y+70843D01*
X-2590799Y+1600201D01*
X-3166597Y+1600201D01*
X-3123001Y+1556605D01*
G37*
%TD.AperFunction*%
%LPC*%
G36*
X-3376999Y+1302605D02*
X-3376999Y+1197395D01*
X-3302605Y+1123001D01*
X-3284643Y+1123001D01*
X-2864299Y+702657D01*
X-2864299Y+351226D01*
X-2902399Y+313126D01*
X-2902399Y+186874D01*
X-2813126Y+97601D01*
X-2686874Y+97601D01*
X-2597601Y+186874D01*
X-2597601Y+313126D01*
X-2635701Y+351226D01*
X-2635701Y+797343D01*
X-3123001Y+1284643D01*
X-3123001Y+1302605D01*
X-3197395Y+1376999D01*
X-3302605Y+1376999D01*
X-3376999Y+1302605D01*
G37*
%LPD*%
%TA.AperFunction,NonConductor*%
G36*
X+1193799Y-63500D02*
X+1193799Y-110843D01*
X+936344Y-368298D01*
X-668138Y-368298D01*
X-594301Y-442135D01*
X-594301Y-557865D01*
X-619701Y-583265D01*
X-619701Y-711201D01*
X-364843Y-711201D01*
X-71343Y-417701D01*
X+1385701Y-417701D01*
X+1385701Y-47343D01*
X+1193799Y+144559D01*
X+1193799Y-63500D01*
G37*
%TD.AperFunction*%
%TA.AperFunction,NonConductor*%
G36*
X-1409701Y-1158255D02*
X-1364299Y-1112853D01*
X-1364299Y-440657D01*
X-1101441Y-177799D01*
X-1409701Y-177799D01*
X-1409701Y-1158255D01*
G37*
%TD.AperFunction*%
%TA.AperFunction,NonConductor*%
G36*
X-12701Y-1317343D02*
X-12701Y-1375059D01*
X+168559Y-1193799D01*
X+110843Y-1193799D01*
X-12701Y-1317343D01*
G37*
%TD.AperFunction*%
%TA.AperFunction,NonConductor*%
G36*
X+4411072Y-1499430D02*
X+4411073Y-1499430D01*
X+4478028Y-1566385D01*
X+4478028Y-1822122D01*
X+4541607Y-1885701D01*
X+4666735Y-1885701D01*
X+4692135Y-1860301D01*
X+4807865Y-1860301D01*
X+4842716Y-1895152D01*
X+4842716Y-1542916D01*
X+4662099Y-1362299D01*
X+4273941Y-1362299D01*
X+4411072Y-1499430D01*
G37*
%TD.AperFunction*%
%TA.AperFunction,NonConductor*%
G36*
X+3069941Y-1917701D02*
X+3512157Y-1917701D01*
X+3635701Y-1794157D01*
X+3635701Y-1599265D01*
X+3610301Y-1573865D01*
X+3610301Y-1458135D01*
X+3684138Y-1384298D01*
X+3603344Y-1384298D01*
X+3069941Y-1917701D01*
G37*
%TD.AperFunction*%
%TA.AperFunction,NonConductor*%
G36*
X+368299Y-1962773D02*
X+368299Y-2027409D01*
X+459734Y-1935974D01*
X+459734Y-1897318D01*
X+526690Y-1830362D01*
X+1028005Y-1830362D01*
X+1094960Y-1897318D01*
X+1287095Y-2089453D01*
X+1287095Y-1880956D01*
X+1205964Y-1799825D01*
X+531247Y-1799825D01*
X+368299Y-1962773D01*
G37*
%TD.AperFunction*%
%TA.AperFunction,NonConductor*%
G36*
X-1735701Y-1253843D02*
X-1735701Y-1312853D01*
X-1672201Y-1376353D01*
X-1672201Y-1523647D01*
X-1776353Y-1627799D01*
X-1923647Y-1627799D01*
X-1987147Y-1564299D01*
X-3191156Y-1564298D01*
X-3314701Y-1687842D01*
X-3314701Y-2454559D01*
X-3285844Y-2425702D01*
X-3114299Y-2425702D01*
X-3114299Y-2319305D01*
X-3126999Y-2306605D01*
X-3126999Y-2201395D01*
X-3052605Y-2127001D01*
X-2947395Y-2127001D01*
X-2873001Y-2201395D01*
X-2873001Y-2306605D01*
X-2885701Y-2319305D01*
X-2885701Y-2425701D01*
X-2623265Y-2425701D01*
X-2557865Y-2360301D01*
X-2442135Y-2360301D01*
X-2400299Y-2402137D01*
X-2400299Y-2269843D01*
X-2555843Y-2114299D01*
X-2934695Y-2114299D01*
X-2947395Y-2126999D01*
X-3052605Y-2126999D01*
X-3126999Y-2052605D01*
X-3126999Y-1947395D01*
X-3052605Y-1873001D01*
X-2947395Y-1873001D01*
X-2934695Y-1885701D01*
X-2461157Y-1885701D01*
X-2171701Y-2175157D01*
X-2171701Y-2746657D01*
X-2048157Y-2870201D01*
X-1931245Y-2870201D01*
X-2027799Y-2773647D01*
X-2027799Y-2626353D01*
X-1923647Y-2522201D01*
X-1776353Y-2522201D01*
X-1672201Y-2626353D01*
X-1672201Y-2773647D01*
X-1768755Y-2870201D01*
X-731245Y-2870201D01*
X-827799Y-2773647D01*
X-827799Y-2683844D01*
X-1638299Y-1873344D01*
X-1638299Y-1156441D01*
X-1735701Y-1253843D01*
G37*
%TD.AperFunction*%
%TA.AperFunction,NonConductor*%
G36*
X+2267943Y-2110301D02*
X+2303865Y-2110301D01*
X+2324123Y-2130559D01*
X+2324123Y-2038906D01*
X+2407230Y-1955799D01*
X+2113441Y-1955799D01*
X+2267943Y-2110301D01*
G37*
%TD.AperFunction*%
%TA.AperFunction,NonConductor*%
G36*
X+4811863Y-2135701D02*
X+4942137Y-2135701D01*
X+4877000Y-2070564D01*
X+4811863Y-2135701D01*
G37*
%TD.AperFunction*%
%TA.AperFunction,NonConductor*%
G36*
X+5065863Y-2135701D02*
X+5196137Y-2135701D01*
X+5131000Y-2070564D01*
X+5065863Y-2135701D01*
G37*
%TD.AperFunction*%
%TA.AperFunction,NonConductor*%
G36*
X+3889699Y-1458135D02*
X+3889699Y-1573865D01*
X+3864299Y-1599265D01*
X+3864299Y-1888843D01*
X+3617441Y-2135702D01*
X+3885701Y-2135702D01*
X+3885701Y-2083265D01*
X+3860301Y-2057865D01*
X+3860301Y-1942135D01*
X+3942135Y-1860301D01*
X+4057865Y-1860301D01*
X+4139699Y-1942135D01*
X+4139699Y-2057865D01*
X+4114299Y-2083265D01*
X+4114299Y-2135701D01*
X+4688137Y-2135701D01*
X+4666735Y-2114299D01*
X+4446921Y-2114299D01*
X+4249430Y-1916808D01*
X+4249430Y-1661072D01*
X+3972656Y-1384298D01*
X+3815862Y-1384298D01*
X+3889699Y-1458135D01*
G37*
%TD.AperFunction*%
%TA.AperFunction,NonConductor*%
G36*
X+654854Y-2064138D02*
X+606299Y-2112693D01*
X+606299Y-2166735D01*
X+619000Y-2179436D01*
X+688135Y-2110301D01*
X+803865Y-2110301D01*
X+873000Y-2179436D01*
X+942135Y-2110301D01*
X+984659Y-2110301D01*
X+933318Y-2058960D01*
X+660032Y-2058960D01*
X+654854Y-2064138D01*
G37*
%TD.AperFunction*%
%TA.AperFunction,NonConductor*%
G36*
X+2627000Y-2179436D02*
X+2685598Y-2120838D01*
X+2568402Y-2120838D01*
X+2627000Y-2179436D01*
G37*
%TD.AperFunction*%
%TA.AperFunction,NonConductor*%
G36*
X+549865Y-2389699D02*
X+434135Y-2389699D01*
X+368299Y-2323863D01*
X+368299Y-2459319D01*
X+516143Y-2607163D01*
X+530101Y-2593205D01*
X+530101Y-2429156D01*
X+597057Y-2362201D01*
X+628848Y-2330412D01*
X+619000Y-2320564D01*
X+549865Y-2389699D01*
G37*
%TD.AperFunction*%
%TA.AperFunction,NonConductor*%
G36*
X-3124202Y-2694598D02*
X-3083903Y-2654299D01*
X-3124202Y-2654299D01*
X-3124202Y-2694598D01*
G37*
%TD.AperFunction*%
%TA.AperFunction,NonConductor*%
G36*
X-3124202Y-2889702D02*
X-3065305Y-2889702D01*
X-3052605Y-2877001D01*
X-2947395Y-2877001D01*
X-2873001Y-2951395D01*
X-2873001Y-3056605D01*
X-2947395Y-3130999D01*
X-3052605Y-3130999D01*
X-3065305Y-3118299D01*
X-3285844Y-3118298D01*
X-3314701Y-3089441D01*
X-3314701Y-3127657D01*
X-3191157Y-3251201D01*
X-2390941Y-3251201D01*
X-2777843Y-2864299D01*
X-2934695Y-2864299D01*
X-2947395Y-2876999D01*
X-3052605Y-2876999D01*
X-3124202Y-2805402D01*
X-3124202Y-2889702D01*
G37*
%TD.AperFunction*%
%TA.AperFunction,NonConductor*%
G36*
X-2442135Y-2639699D02*
X-2478057Y-2639699D01*
X-2492657Y-2654299D01*
X-2664559Y-2654299D01*
X-2258157Y-3060701D01*
X-2180941Y-3060701D01*
X-2400299Y-2841343D01*
X-2400299Y-2597863D01*
X-2442135Y-2639699D01*
G37*
%TD.AperFunction*%
%TA.AperFunction,NonConductor*%
G36*
X-232059Y-3060701D02*
X-174343Y-3060701D01*
X-50799Y-2937157D01*
X-50799Y-2879441D01*
X-232059Y-3060701D01*
G37*
%TD.AperFunction*%
%TA.AperFunction,NonConductor*%
G36*
X+860299Y-2333266D02*
X+860298Y-2374900D01*
X+860298Y-2422244D01*
X+758699Y-2523843D01*
X+758699Y-2687891D01*
X+563486Y-2883104D01*
X+468800Y-2883104D01*
X+177799Y-2592103D01*
X+177799Y-3031843D01*
X-41559Y-3251201D01*
X+714657Y-3251201D01*
X+885701Y-3080157D01*
X+885701Y-2333265D01*
X+873001Y-2320565D01*
X+860299Y-2333266D01*
G37*
%TD.AperFunction*%
D10*
X-3250000Y+2996000D02*
X-3492500Y+2996000D01*
X-3492500Y+6159500D01*
X-3302000Y+6350000D01*
X-1714500Y+6350000D01*
X-1524000Y+6159500D01*
X-1524000Y+5588000D01*
X+2750000Y+4500000D02*
X+1875000Y+5375000D01*
X+1250000Y+5375000D01*
X-3250000Y+2996000D02*
X-2754000Y+2500000D01*
X-2250000Y+2500000D01*
X+1250000Y+5375000D02*
X+762000Y+5375000D01*
X+621000Y+5516000D01*
X-250000Y+5516000D01*
X-762000Y+5516000D01*
X-834000Y+5588000D01*
X-1524000Y+5588000D01*
X+5000000Y+3254000D02*
X+5461000Y+3254000D01*
X+5469000Y+3246000D01*
X+5750000Y+3246000D01*
X-1524000Y+5588000D02*
X-1524000Y+5524500D01*
X-1725500Y+5524500D01*
X-1750000Y+5500000D01*
X+3750000Y+4500000D02*
X+3487500Y+4762500D01*
X+3012500Y+4762500D01*
X+2750000Y+4500000D01*
X-825500Y+2730500D02*
X-825500Y+1587500D01*
X-635000Y+1397000D01*
X+889000Y+1397000D01*
X+1079500Y+1206500D01*
X+1079500Y-63500D01*
X+889000Y-254000D01*
X-1016000Y-254000D01*
X-1250000Y-488000D01*
X-1250000Y-1250000D01*
X+16000Y+4000000D02*
X+1270500Y+4000000D01*
X+1778000Y+3492500D01*
X-2250000Y+3516000D02*
X-2250000Y+2921000D01*
X-2059500Y+2730500D01*
X-2032000Y+2730500D01*
X-1968500Y+2667000D01*
X-2250000Y+3516000D02*
X-2516000Y+3250000D01*
X-3250000Y+3250000D01*
X+1750000Y+3000000D02*
X+1750000Y+3238500D01*
X+1778000Y+3266500D01*
X+1778000Y+3492500D01*
X-1968500Y+2667000D02*
X-1968500Y+2500000D01*
X-1750000Y+2500000D01*
X-1714500Y+2730500D02*
X-1905000Y+2730500D01*
X-1968500Y+2667000D01*
X+16000Y+4000000D02*
X-508000Y+4000000D01*
X-508500Y+4000500D01*
X-698500Y+4000500D01*
X-825500Y+2730500D02*
X-825500Y+3873500D01*
X-698500Y+4000500D01*
X-825500Y+2730500D02*
X-1714500Y+2730500D01*
X-698500Y+4000500D02*
X-1198000Y+4500000D01*
X-1750000Y+4500000D01*
X-1750000Y+3516000D02*
X-1484000Y+3516000D01*
X-1000000Y+4000000D01*
X-2500000Y+3750000D02*
X-1984000Y+3750000D01*
X-1750000Y+3516000D01*
X-2730500Y+3813500D02*
X-2940500Y+3813500D01*
X-3250000Y+3504000D01*
X-2500000Y+3750000D02*
X-2667000Y+3750000D01*
X-2730500Y+3813500D01*
X-2730500Y+4972500D01*
X-3000000Y+5242000D01*
X-2476500Y+1651000D02*
X-2476500Y+23500D01*
X-3000000Y-500000D01*
X-2476500Y+1651000D02*
X-2540000Y+1714500D01*
X-3302000Y+1714500D01*
X-3492500Y+1905000D01*
X-3492500Y+2254000D01*
X-3250000Y+2254000D01*
X-1016000Y+444500D02*
X-952500Y+508000D01*
X-952500Y+1460500D01*
X-1270000Y+1778000D01*
X-246000Y+500000D02*
X-246000Y+762000D01*
X-8000Y+1000000D01*
X+250000Y+1000000D01*
X-1016000Y+444500D02*
X-1210500Y+250000D01*
X-1734000Y+250000D01*
X-1270000Y+1778000D02*
X-1270000Y+1905000D01*
X-1250000Y+1925000D01*
X-1250000Y+2516000D01*
X-2476500Y+1651000D02*
X-2413000Y+1714500D01*
X-1333500Y+1714500D01*
X-1270000Y+1778000D01*
X+750000Y+1000000D02*
X+543500Y+1206500D01*
X-254000Y+1206500D01*
X-500000Y+960500D01*
X-500000Y+500000D01*
X-1524000Y-63500D02*
X-1524000Y-1826001D01*
X-650000Y-2700000D01*
X-650001Y-2700000D01*
X-1524000Y-63500D02*
X-1778000Y-63500D01*
X-2000000Y+158500D01*
X-2000000Y+1000000D01*
X-2000000Y+2016000D02*
X-2540000Y+2016000D01*
X-2556000Y+2000000D01*
X-3250000Y+2000000D01*
X-3250000Y+1250000D02*
X-2750000Y+750000D01*
X-2750000Y+250000D01*
X-1850000Y-1450000D02*
X-3238500Y-1449999D01*
X-3429000Y-1640499D01*
X-3429000Y-3175000D01*
X-3238500Y-3365500D01*
X+762000Y-3365500D01*
X+1000000Y-3127500D01*
X+1000000Y-2250000D01*
X-1850000Y-1449999D02*
X-1850000Y-1450000D01*
X-1850000Y-1206500D01*
X-1750000Y-1106500D01*
X-1750000Y-500000D01*
X+4516000Y+1750000D02*
X+4036000Y+1750000D01*
X+3937000Y+1651000D01*
X+3873500Y+2016000D02*
X+3873500Y+1714500D01*
X+3937000Y+1651000D01*
X+3873500Y+2016000D02*
X+1500000Y+2016000D01*
X+3750000Y-3250000D02*
X+4056000Y-3556000D01*
X+5588000Y-3556000D01*
X+5778500Y-3365500D01*
X+5778500Y-1016000D01*
X+5715000Y-952500D01*
X+5750000Y+3754000D02*
X+6096000Y+3754000D01*
X+6286500Y+3563500D01*
X+6286500Y-571500D01*
X+6096000Y-762000D01*
X+5905500Y-762000D01*
X+5715000Y-952500D01*
X+5750000Y+3754000D02*
X+5504000Y+4000000D01*
X+5504000Y+4250000D01*
X+3242000Y+2746000D02*
X+3242000Y+2746001D01*
X+5250000Y+250000D02*
X+5250000Y+508000D01*
X+5207000Y+508000D01*
X+5016500Y+698500D01*
X+5016500Y+1516500D01*
X+5250000Y+1750000D01*
X+3750000Y-500000D02*
X+4266000Y-500000D01*
X+4500000Y-266000D01*
X+3750000Y-500000D02*
X+3750000Y+0D01*
X+1500000Y+1000000D02*
X+2750000Y+1000000D01*
X+2988000Y+762000D01*
X+1500000Y+1000000D02*
X+1500000Y+484000D01*
X+2250000Y+1766000D02*
X+3048000Y+1766000D01*
X+3242000Y+1572000D01*
X+3242000Y+762000D01*
X+2250000Y+1766000D02*
X+1460500Y+1766000D01*
X+1242000Y+1984500D01*
X+1242000Y+2746000D01*
X+1242000Y+2746001D01*
X+2500000Y-500000D02*
X+1920500Y-1079500D01*
X+63500Y-1079500D01*
X-127000Y-1270000D01*
X-127000Y-2794000D01*
X-317500Y-2984500D01*
X-2095500Y-2984500D01*
X-2286000Y-2794000D01*
X-2286000Y-2222500D01*
X-2508500Y-2000000D01*
X-3000000Y-2000000D01*
X+3496000Y+762000D02*
X+2500000Y-234000D01*
X+2500000Y-500000D01*
X+3496000Y+762000D02*
X+3496000Y+1270000D01*
X+3500000Y+1274000D01*
X+3500000Y+1750000D01*
X+4750000Y-2750000D02*
X+4766000Y-2766000D01*
X+4766000Y-3250000D01*
X+4250000Y+5500000D02*
X+4500000Y+5750000D01*
X+5500000Y+5750000D01*
X+4250000Y+5500000D02*
X+3766000Y+5500000D01*
X+3750000Y+5516000D01*
X+3250000Y+5500000D02*
X+3508000Y+5242000D01*
X+5500000Y+5242000D01*
X+3250000Y+5500000D02*
X+2766000Y+5500000D01*
X+2750000Y+5516000D01*
X-3000000Y-1008000D02*
X-2730500Y-1008000D01*
X-2667000Y-944500D01*
X-2786000Y-825500D01*
X-3302000Y-825500D01*
X-3492500Y-635000D01*
X-3492500Y+1504000D01*
X-3250000Y+1504000D01*
X+1500000Y-532000D02*
X+1500000Y+0D01*
X+1270000Y+230000D01*
X+1270000Y+1397000D01*
X+952500Y+1714500D01*
X+952500Y+2794000D01*
X-1968500Y+4754000D02*
X-2500000Y+4222500D01*
X-2500000Y+4004000D01*
X-250000Y+4500000D02*
X-504000Y+4754000D01*
X-1750000Y+4754000D01*
X+3250000Y+4484000D02*
X+3020500Y+4254500D01*
X+1620500Y+4254500D01*
X+1250000Y+4625000D01*
X+3250000Y+4484000D02*
X+3250000Y+4064000D01*
X+4000500Y+3313500D01*
X+4000500Y+2857500D01*
X-650000Y-1450000D02*
X-317500Y-1117500D01*
X-317500Y-825500D01*
X+1250000Y+4625000D02*
X+444500Y+4625000D01*
X+319500Y+4500000D01*
X-250000Y+4500000D01*
X+4635500Y+4127500D02*
X+4250000Y+4127500D01*
X+4250000Y+4484000D01*
X-317500Y-825500D02*
X-734000Y-825500D01*
X-734000Y-500000D01*
X+4635500Y+4127500D02*
X+4758000Y+4250000D01*
X+5250000Y+4250000D01*
X-2032000Y+5715000D02*
X-2286000Y+5715000D01*
X-2321000Y+5750000D01*
X-3000000Y+5750000D01*
X+5250000Y-766000D02*
X+5250000Y-1333500D01*
X+5258000Y-1341500D01*
X+5258000Y-2000000D01*
X-2032000Y+5715000D02*
X-2032000Y+5969000D01*
X-1838900Y+5969000D01*
X-1750000Y+5880100D01*
X-1750000Y+5754000D01*
X+952500Y+2794000D02*
X+1143000Y+2984500D01*
X+1397000Y+2984500D01*
X+1587500Y+2794000D01*
X+2032000Y+2794000D01*
X+2222500Y+2984500D01*
X+3365500Y+2984500D01*
X+3556000Y+2794000D01*
X+3937000Y+2794000D01*
X+4000500Y+2857500D01*
X+5936500Y+2794000D02*
X+4064000Y+2794000D01*
X+4000500Y+2857500D01*
X-1750000Y+4754000D02*
X-2032000Y+5036000D01*
X-2032000Y+5715000D01*
X+5000000Y+3508000D02*
X+4635500Y+3872500D01*
X+4635500Y+4127500D01*
X+1500000Y-532000D02*
X-24000Y-532000D01*
X-317500Y-825500D01*
X-1750000Y+4754000D02*
X-1968500Y+4754000D01*
X+250000Y+2016000D02*
X-265613Y+2016000D01*
X-483527Y+2233914D01*
X-483527Y+2483527D01*
X-500000Y+2500000D01*
X+750000Y+2016000D02*
X+543500Y+2222500D01*
X-181262Y+2222500D01*
X-181262Y+2234068D01*
X-279233Y+2332039D01*
X-279233Y+2466767D01*
X-246000Y+2500000D01*
X-1524000Y-63500D02*
X+127735Y-63500D01*
X+506903Y+315668D01*
X+317625Y+504946D01*
X+12946Y+504946D01*
X+8000Y+500000D01*
X-555500Y+190500D02*
X-70091Y+190500D01*
X-70091Y+263768D01*
X-246000Y+439677D01*
X-246000Y+500000D01*
X-555500Y+190500D02*
X-762000Y+190500D01*
X-1016000Y+444500D01*
X+4750000Y-2750000D02*
X+4540000Y-2540000D01*
X+2316628Y-2540000D01*
X+2197244Y-2420616D01*
X+2197244Y-2298756D01*
X+2246000Y-2250000D01*
D11*
X+2500000Y-2250000D02*
X+2425722Y-2175722D01*
X+2425722Y-2080989D01*
X+2487472Y-2019239D01*
X+2859622Y-2019239D01*
X+2872383Y-2032000D01*
D10*
X+3750000Y-1516000D02*
X+3750000Y-1841500D01*
X+3559500Y-2032000D01*
X+2872383Y-2032000D01*
X+4750000Y-2000000D02*
X+4494264Y-2000000D01*
X+4363729Y-1869465D01*
X+4363729Y-1613729D01*
X+4020000Y-1270000D01*
X+3556000Y-1270000D01*
X+2984500Y-1841500D01*
X+1983898Y-1841500D01*
X+1828801Y-1996597D01*
X+1992597Y-1996597D01*
X+2246000Y-2250000D01*
X+5004000Y-2000000D02*
X+4957014Y-1953014D01*
X+4957014Y-1495572D01*
X+4709442Y-1248000D01*
X+4252000Y-1248000D01*
X+4083500Y-1079500D01*
X+3365500Y-1079500D01*
X+2929000Y-1516000D01*
X+2500000Y-1516000D01*
X+5250000Y+734000D02*
X+5298500Y+734000D01*
X+5588000Y+444500D01*
X+5588000Y-825500D01*
X+5715000Y-952500D01*
X+4079744Y+2159000D02*
X+3846211Y+2392533D01*
X+3595468Y+2392533D01*
X+3595467Y+2392533D01*
X+3494000Y+2494000D01*
X+3595468Y+2392533D02*
X+3494000Y+2494000D01*
X+3242000Y+2746000D01*
X+5250000Y+250000D02*
X+4719886Y+250000D01*
X+4698585Y+228699D01*
X+3724699Y+228699D01*
X+3496000Y+0D01*
X+5000000Y+3254000D02*
X+4593218Y+3254000D01*
X+3973718Y+3873500D01*
X+3940500Y+3873500D01*
X+3750000Y+4064000D01*
X+3750000Y+4500000D01*
X+3750000Y+3000000D02*
X+3566884Y+3183116D01*
X+3566884Y+3381596D01*
X+3455980Y+3492500D01*
X+2242500Y+3492500D01*
X+1750000Y+3000000D01*
X+3750000Y-3250000D02*
X+2286000Y-3250000D01*
X+1156260Y-2120260D01*
D11*
X+1129740Y-2093740D01*
D10*
X+980661Y-1944661D01*
X+574033Y-1944661D01*
X+574033Y-1983317D01*
X+455193Y-2102157D01*
X+492000Y-2138964D01*
X+492000Y-2250000D01*
X+746000Y-2250000D02*
X+746000Y-2374900D01*
X+644400Y-2476500D01*
X+644400Y-2640548D01*
X+516143Y-2768805D01*
X+254000Y-2506662D01*
X+254000Y-1915430D01*
X+483904Y-1685526D01*
X+1253307Y-1685526D01*
X+1401394Y-1833613D01*
X+1401394Y-2119394D01*
X+2032000Y-2750000D01*
X+3734000Y-2750000D01*
X+3750000Y-500000D02*
X+3561632Y-688368D01*
X+3294845Y-688368D01*
X+2960764Y-1022449D01*
X+2442448Y-1022449D01*
X+2194897Y-1270000D01*
X+254000Y-1270000D01*
X+63500Y-1460500D01*
X+63500Y-2984500D01*
X-127000Y-3175000D01*
X-2305500Y-3175000D01*
X-2730500Y-2750000D01*
X-3000000Y-2750000D01*
X+4734000Y+2500000D02*
X+4519821Y+2285821D01*
X+4519821Y+2159000D01*
X+4079744Y+2159000D01*
X+4519821Y+2159000D02*
X+4826000Y+2159000D01*
X+4826000Y+571500D01*
X+4782086Y+527586D01*
X+3769586Y+527586D01*
X+3242000Y+0D01*
X+5750000Y+2500000D02*
X+6000000Y+2750000D01*
X+6000000Y+2857500D01*
X+5936500Y+2794000D01*
X+5750000Y+3500000D02*
X+5524500Y+3500000D01*
X+5516500Y+3508000D01*
X+5000000Y+3508000D01*
X+5750000Y+3500000D02*
X+6000000Y+3500000D01*
X+6000000Y+2857500D01*
X+1500000Y-532000D02*
X+1938154Y-93846D01*
X+1938154Y+438154D01*
X+2250000Y+750000D01*
X+2250000Y+250000D01*
X+2988000Y+0D02*
X+2988000Y-488000D01*
X+3000000Y-500000D01*
X+500000Y+2794000D02*
X+500000Y+3250000D01*
X+952500Y+2794000D02*
X+500000Y+2794000D01*
X+302000Y+2794000D01*
X+8000Y+2500000D01*
X-1500000Y+1500000D02*
X-1500000Y+1000000D01*
X-1500000Y+1500000D02*
X-1250000Y+1500000D01*
X+4000000Y-2250000D02*
X+4000000Y-2000000D01*
X+2754000Y-2250000D02*
X+4000000Y-2250000D01*
X+5478766Y-2250000D01*
X+5478766Y-2220766D01*
X+5258000Y-2000000D01*
X-2286000Y-500000D02*
X-2000000Y-500000D01*
X-2667000Y-944500D02*
X-2667000Y-1008000D01*
X-2476500Y-1008000D01*
X-2286000Y-817500D01*
X-2286000Y-500000D01*
X-2286000Y+1270000D01*
X-2056000Y+1500000D01*
X-1500000Y+1500000D01*
X-3000000Y-2540000D02*
X-2540000Y-2540000D01*
X-2500000Y-2500000D01*
X-3000000Y-2254000D02*
X-3000000Y-2540000D01*
X-3238500Y-2540000D01*
X-3238500Y-3004000D01*
X-3000000Y-3004000D01*
X+5588000Y+444500D02*
X+5588000Y+838000D01*
X+5750000Y+1000000D01*
X+3750000Y+762000D02*
X+3988000Y+1000000D01*
X+4250000Y+1000000D01*
X+4500000Y+1250000D01*
X+4500000Y+1270000D01*
X+4500000Y+750000D02*
X+4500000Y+1250000D01*
X+4500000Y+1270000D02*
X+4309500Y+1460500D01*
X+3873500Y+1460500D01*
X+3873500Y+1651000D01*
X+3937000Y+1651000D01*
D12*
X-3617920Y-3617920D02*
X+3956278Y-3617920D01*
X+3728057Y-3389699D01*
X+3692135Y-3389699D01*
X+3666735Y-3364299D01*
X+2238657Y-3364299D01*
X+1139699Y-2265341D01*
X+1139699Y-2307865D01*
X+1114299Y-2333265D01*
X+1114299Y-3174843D01*
X+809343Y-3479799D01*
X-3285843Y-3479799D01*
X-3543299Y-3222343D01*
X-3543299Y-1593156D01*
X-3285844Y-1335701D01*
X-1987147Y-1335701D01*
X-1964299Y-1312853D01*
X-1964299Y-1159157D01*
X-1864299Y-1059157D01*
X-1864299Y-583265D01*
X-1875000Y-572564D01*
X-1942135Y-639699D01*
X-2057865Y-639699D01*
X-2083265Y-614299D01*
X-2171701Y-614299D01*
X-2171701Y-864843D01*
X-2429157Y-1122299D01*
X-2862853Y-1122299D01*
X-2926353Y-1185799D01*
X-3073647Y-1185799D01*
X-3177799Y-1081647D01*
X-3177799Y-939799D01*
X-3349343Y-939799D01*
X-3606799Y-682343D01*
X-3606799Y+1551343D01*
X-3539843Y+1618299D01*
X-3367441Y+1618299D01*
X-3606799Y+1857657D01*
X-3606799Y+2301343D01*
X-3539843Y+2368299D01*
X-3315305Y+2368299D01*
X-3302605Y+2380999D01*
X-3197395Y+2380999D01*
X-3123001Y+2306605D01*
X-3123001Y+2201395D01*
X-3197395Y+2127001D01*
X-3302605Y+2127001D01*
X-3315305Y+2139701D01*
X-3378201Y+2139701D01*
X-3378201Y+1952343D01*
X-3376999Y+1951141D01*
X-3376999Y+2052605D01*
X-3302605Y+2126999D01*
X-3197395Y+2126999D01*
X-3184695Y+2114299D01*
X-2603343Y+2114299D01*
X-2587343Y+2130299D01*
X-2065305Y+2130299D01*
X-2052605Y+2142999D01*
X-1947395Y+2142999D01*
X-1873001Y+2068605D01*
X-1873001Y+1963395D01*
X-1947395Y+1889001D01*
X-2052605Y+1889001D01*
X-2065305Y+1901701D01*
X-2492657Y+1901701D01*
X-2508657Y+1885701D01*
X-3184695Y+1885701D01*
X-3197395Y+1873001D01*
X-3298859Y+1873001D01*
X-3254657Y+1828799D01*
X-2492657Y+1828799D01*
X-2476500Y+1812642D01*
X-2460343Y+1828799D01*
X-1384299Y+1828799D01*
X-1384299Y+1952343D01*
X-1364299Y+1972343D01*
X-1364299Y+2414774D01*
X-1402399Y+2452874D01*
X-1402399Y+2579126D01*
X-1365324Y+2616201D01*
X-1650676Y+2616201D01*
X-1597601Y+2563126D01*
X-1597601Y+2436874D01*
X-1686874Y+2347601D01*
X-1813126Y+2347601D01*
X-1851226Y+2385701D01*
X-2015843Y+2385701D01*
X-2082799Y+2452657D01*
X-2082799Y+2616201D01*
X-2106843Y+2616201D01*
X-2364299Y+2873657D01*
X-2364299Y+3240059D01*
X-2468657Y+3135701D01*
X-3166735Y+3135701D01*
X-3179436Y+3123000D01*
X-3110301Y+3053865D01*
X-3110301Y+3017943D01*
X-2706657Y+2614299D01*
X-2351226Y+2614299D01*
X-2313126Y+2652399D01*
X-2186874Y+2652399D01*
X-2097601Y+2563126D01*
X-2097601Y+2436874D01*
X-2186874Y+2347601D01*
X-2313126Y+2347601D01*
X-2351226Y+2385701D01*
X-2801343Y+2385701D01*
X-3271943Y+2856301D01*
X-3307865Y+2856301D01*
X-3333265Y+2881701D01*
X-3539843Y+2881701D01*
X-3606799Y+2948657D01*
X-3606799Y+6206843D01*
X-3349343Y+6464299D01*
X-1667157Y+6464299D01*
X-1409701Y+6206843D01*
X-1409701Y+5702299D01*
X-786657Y+5702299D01*
X-714656Y+5630298D01*
X-351227Y+5630298D01*
X-313126Y+5668399D01*
X-186874Y+5668399D01*
X-148774Y+5630299D01*
X+668343Y+5630299D01*
X+809344Y+5489298D01*
X+1148773Y+5489298D01*
X+1186874Y+5527399D01*
X+1313126Y+5527399D01*
X+1351226Y+5489299D01*
X+1922343Y+5489299D01*
X+2750000Y+4661642D01*
X+2965156Y+4876798D01*
X+3534844Y+4876798D01*
X+3771943Y+4639699D01*
X+3807865Y+4639699D01*
X+3889699Y+4557865D01*
X+3889699Y+4442135D01*
X+3864299Y+4416735D01*
X+3864299Y+4111343D01*
X+3987843Y+3987799D01*
X+4021062Y+3987799D01*
X+4088017Y+3920843D01*
X+4640561Y+3368299D01*
X+4916735Y+3368299D01*
X+4929436Y+3381000D01*
X+4860301Y+3450135D01*
X+4860301Y+3486057D01*
X+4521201Y+3825157D01*
X+4521201Y+4013201D01*
X+4202657Y+4013201D01*
X+4135701Y+4080157D01*
X+4135701Y+4400735D01*
X+4110301Y+4426135D01*
X+4110301Y+4541865D01*
X+4192135Y+4623699D01*
X+4307865Y+4623699D01*
X+4389699Y+4541865D01*
X+4389699Y+4426135D01*
X+4364299Y+4400735D01*
X+4364299Y+4241799D01*
X+4588157Y+4241799D01*
X+4710657Y+4364299D01*
X+5166735Y+4364299D01*
X+5192135Y+4389699D01*
X+5307865Y+4389699D01*
X+5377000Y+4320564D01*
X+5446135Y+4389699D01*
X+5561865Y+4389699D01*
X+5643699Y+4307865D01*
X+5643699Y+4192135D01*
X+5618299Y+4166735D01*
X+5618299Y+4047343D01*
X+5771943Y+3893699D01*
X+5807865Y+3893699D01*
X+5833265Y+3868299D01*
X+6143343Y+3868299D01*
X+6367920Y+3643722D01*
X+6367920Y+6617920D01*
X-3617920Y+6617920D01*
X-3617920Y-3617920D01*
X+5362853Y+5864299D02*
X+4452657Y+5864299D01*
X+4228057Y+5639699D01*
X+4192135Y+5639699D01*
X+4166735Y+5614299D01*
X+3849265Y+5614299D01*
X+3807865Y+5655699D01*
X+3692135Y+5655699D01*
X+3610301Y+5573865D01*
X+3610301Y+5458135D01*
X+3692135Y+5376301D01*
X+3807865Y+5376301D01*
X+3817265Y+5385701D01*
X+4166735Y+5385701D01*
X+4192135Y+5360301D01*
X+4307865Y+5360301D01*
X+4389699Y+5442135D01*
X+4389699Y+5478057D01*
X+4547343Y+5635701D01*
X+5362853Y+5635701D01*
X+5426353Y+5572201D01*
X+5573647Y+5572201D01*
X+5677799Y+5676353D01*
X+5677799Y+5823647D01*
X+5573647Y+5927799D01*
X+5426353Y+5927799D01*
X+5362853Y+5864299D01*
X+2610301Y+5573865D02*
X+2610301Y+5458135D01*
X+2692135Y+5376301D01*
X+2807865Y+5376301D01*
X+2817265Y+5385701D01*
X+3166735Y+5385701D01*
X+3192135Y+5360301D01*
X+3228057Y+5360301D01*
X+3460657Y+5127701D01*
X+5362853Y+5127701D01*
X+5426353Y+5064201D01*
X+5573647Y+5064201D01*
X+5677799Y+5168353D01*
X+5677799Y+5315647D01*
X+5573647Y+5419799D01*
X+5426353Y+5419799D01*
X+5362853Y+5356299D01*
X+3555343Y+5356299D01*
X+3389699Y+5521943D01*
X+3389699Y+5557865D01*
X+3307865Y+5639699D01*
X+3192135Y+5639699D01*
X+3166735Y+5614299D01*
X+2849265Y+5614299D01*
X+2807865Y+5655699D01*
X+2692135Y+5655699D01*
X+2610301Y+5573865D01*
X+6367321Y-652321D02*
X+6143343Y-876299D01*
X+5952843Y-876299D01*
X+5876642Y-952500D01*
X+5892798Y-968656D01*
X+5892798Y-3412844D01*
X+5687722Y-3617920D01*
X+6367920Y-3617920D01*
X+6367920Y-651722D01*
X+6367321Y-652321D01*
X-1649676Y+5638799D02*
X-1638299Y+5638799D01*
X-1638299Y+5650176D01*
X-1649676Y+5638799D01*
X-3378201Y+6112157D02*
X-3378201Y+3573363D01*
X-3307865Y+3643699D01*
X-3271943Y+3643699D01*
X-2987843Y+3927799D01*
X-2844799Y+3927799D01*
X-2844799Y+4925157D01*
X-3009243Y+5089601D01*
X-3063126Y+5089601D01*
X-3152399Y+5178874D01*
X-3152399Y+5305126D01*
X-3063126Y+5394399D01*
X-2936874Y+5394399D01*
X-2847601Y+5305126D01*
X-2847601Y+5251243D01*
X-2616201Y+5019843D01*
X-2616201Y+4085363D01*
X-2614299Y+4087265D01*
X-2614299Y+4269843D01*
X-2020892Y+4863250D01*
X-2146299Y+4988657D01*
X-2146299Y+5600701D01*
X-2333343Y+5600701D01*
X-2368343Y+5635701D01*
X-2898774Y+5635701D01*
X-2936874Y+5597601D01*
X-3063126Y+5597601D01*
X-3152399Y+5686874D01*
X-3152399Y+5813126D01*
X-3063126Y+5902399D01*
X-2936874Y+5902399D01*
X-2898774Y+5864299D01*
X-2273657Y+5864299D01*
X-2238657Y+5829299D01*
X-2146299Y+5829299D01*
X-2146299Y+6016343D01*
X-2079343Y+6083299D01*
X-1791557Y+6083299D01*
X-1638299Y+5930041D01*
X-1638299Y+6112157D01*
X-1761843Y+6235701D01*
X-3254657Y+6235701D01*
X-3378201Y+6112157D01*
X-2847601Y+4670874D02*
X-2847601Y+4797126D01*
X-2936874Y+4886399D01*
X-3063126Y+4886399D01*
X-3152399Y+4797126D01*
X-3152399Y+4670874D01*
X-3063126Y+4581601D01*
X-2936874Y+4581601D01*
X-2847601Y+4670874D01*
X-1917701Y+5762344D02*
X-1917701Y+5083343D01*
X-1728057Y+4893699D01*
X-1692135Y+4893699D01*
X-1666734Y+4868298D01*
X-456656Y+4868298D01*
X-240757Y+4652399D01*
X-186874Y+4652399D01*
X-148774Y+4614299D01*
X+272157Y+4614299D01*
X+397157Y+4739299D01*
X+1148774Y+4739299D01*
X+1186874Y+4777399D01*
X+1313126Y+4777399D01*
X+1402399Y+4688126D01*
X+1402399Y+4634243D01*
X+1667843Y+4368799D01*
X+2683637Y+4368799D01*
X+2610301Y+4442135D01*
X+2610301Y+4478057D01*
X+1827657Y+5260701D01*
X+1351226Y+5260701D01*
X+1313126Y+5222601D01*
X+1186874Y+5222601D01*
X+1148774Y+5260701D01*
X+714656Y+5260702D01*
X+573657Y+5401701D01*
X-148774Y+5401701D01*
X-186874Y+5363601D01*
X-313126Y+5363601D01*
X-351226Y+5401701D01*
X-809344Y+5401702D01*
X-881343Y+5473701D01*
X-1413157Y+5473701D01*
X-1476657Y+5410201D01*
X-1624274Y+5410201D01*
X-1686874Y+5347601D01*
X-1813126Y+5347601D01*
X-1902399Y+5436874D01*
X-1902399Y+5563126D01*
X-1838525Y+5627000D01*
X-1902399Y+5690874D01*
X-1902399Y+5817126D01*
X-1875533Y+5843991D01*
X-1886243Y+5854701D01*
X-1917701Y+5854701D01*
X-1917701Y+5762344D01*
X+2889699Y+4478057D02*
X+2889699Y+4442135D01*
X+2816363Y+4368799D01*
X+2973157Y+4368799D01*
X+3110301Y+4505943D01*
X+3110301Y+4541865D01*
X+3192135Y+4623699D01*
X+3307865Y+4623699D01*
X+3389699Y+4541865D01*
X+3389699Y+4426135D01*
X+3364299Y+4400735D01*
X+3364299Y+4111343D01*
X+4114799Y+3360843D01*
X+4114799Y+2908298D01*
X+5885701Y+2908298D01*
X+5885701Y+3184137D01*
X+5807865Y+3106301D01*
X+5692135Y+3106301D01*
X+5666735Y+3131701D01*
X+5421656Y+3131702D01*
X+5413657Y+3139701D01*
X+5083265Y+3139701D01*
X+5057865Y+3114301D01*
X+4942135Y+3114301D01*
X+4916735Y+3139701D01*
X+4545875Y+3139701D01*
X+3926375Y+3759201D01*
X+3893157Y+3759201D01*
X+3635701Y+4016657D01*
X+3635701Y+4416735D01*
X+3610301Y+4442135D01*
X+3610301Y+4478057D01*
X+3440156Y+4648202D01*
X+3059844Y+4648202D01*
X+2889699Y+4478057D01*
X-2385701Y+4175157D02*
X-2385701Y+4087265D01*
X-2360301Y+4061865D01*
X-2360301Y+3946135D01*
X-2429436Y+3877000D01*
X-2416735Y+3864299D01*
X-1936657Y+3864299D01*
X-1728057Y+3655699D01*
X-1692135Y+3655699D01*
X-1666735Y+3630299D01*
X-1531343Y+3630299D01*
X-1139699Y+4021943D01*
X-1139699Y+4057865D01*
X-1057865Y+4139699D01*
X-999341Y+4139699D01*
X-1245343Y+4385701D01*
X-1666735Y+4385701D01*
X-1692135Y+4360301D01*
X-1807865Y+4360301D01*
X-1889699Y+4442135D01*
X-1889699Y+4557865D01*
X-1820564Y+4627000D01*
X-1833265Y+4639701D01*
X-1921157Y+4639701D01*
X-2385701Y+4175157D01*
X-1679435Y+4626999D02*
X-1666735Y+4614299D01*
X-1150657Y+4614299D01*
X-651157Y+4114799D01*
X-461157Y+4114799D01*
X-460657Y+4114299D01*
X-85226Y+4114299D01*
X-47126Y+4152399D01*
X+79126Y+4152399D01*
X+117226Y+4114299D01*
X+1317843Y+4114299D01*
X+1892299Y+3539844D01*
X+1892299Y+3303941D01*
X+2195157Y+3606799D01*
X+3503323Y+3606799D01*
X+3681183Y+3428939D01*
X+3681183Y+3230459D01*
X+3771943Y+3139699D01*
X+3807865Y+3139699D01*
X+3886201Y+3061363D01*
X+3886201Y+3266157D01*
X+3135701Y+4016657D01*
X+3135701Y+4208059D01*
X+3067843Y+4140201D01*
X+1573157Y+4140201D01*
X+1240757Y+4472601D01*
X+1186874Y+4472601D01*
X+1148774Y+4510701D01*
X+491843Y+4510701D01*
X+366843Y+4385701D01*
X-148774Y+4385701D01*
X-186874Y+4347601D01*
X-313126Y+4347601D01*
X-402399Y+4436874D01*
X-402399Y+4490757D01*
X-551343Y+4639701D01*
X-1666734Y+4639701D01*
X-1679435Y+4626999D01*
X-860301Y+4000341D02*
X-860142Y+4000500D01*
X-860301Y+4000659D01*
X-860301Y+4000341D01*
X-2616201Y+3864299D02*
X-2583265Y+3864299D01*
X-2570564Y+3877000D01*
X-2616201Y+3922637D01*
X-2616201Y+3864299D01*
X-711201Y+3826157D02*
X-711201Y+1634843D01*
X-587657Y+1511299D01*
X+936343Y+1511299D01*
X+1155701Y+1291941D01*
X+1155701Y+1349657D01*
X+838201Y+1667157D01*
X+838201Y+1924597D01*
X+802605Y+1889001D01*
X+697395Y+1889001D01*
X+623001Y+1963395D01*
X+623001Y+1981357D01*
X+496157Y+2108201D01*
X+337403Y+2108201D01*
X+376999Y+2068605D01*
X+376999Y+1963395D01*
X+302605Y+1889001D01*
X+197395Y+1889001D01*
X+184695Y+1901701D01*
X-312956Y+1901701D01*
X-597826Y+2186571D01*
X-597826Y+2400262D01*
X-639699Y+2442135D01*
X-639699Y+2557865D01*
X-557865Y+2639699D01*
X-442135Y+2639699D01*
X-373000Y+2570564D01*
X-303865Y+2639699D01*
X-188135Y+2639699D01*
X-119000Y+2570564D01*
X-49865Y+2639699D01*
X-13943Y+2639699D01*
X+254657Y+2908299D01*
X+385701Y+2908299D01*
X+385701Y+3148774D01*
X+347601Y+3186874D01*
X+347601Y+3313126D01*
X+436874Y+3402399D01*
X+563126Y+3402399D01*
X+652399Y+3313126D01*
X+652399Y+3186874D01*
X+614299Y+3148774D01*
X+614299Y+2908299D01*
X+905157Y+2908299D01*
X+1095657Y+3098799D01*
X+1444343Y+3098799D01*
X+1634843Y+2908299D01*
X+1644137Y+2908299D01*
X+1610301Y+2942135D01*
X+1610301Y+3057865D01*
X+1635702Y+3083265D01*
X+1635702Y+3285844D01*
X+1663701Y+3313843D01*
X+1663701Y+3445157D01*
X+1223157Y+3885701D01*
X+117226Y+3885701D01*
X+79126Y+3847601D01*
X-47126Y+3847601D01*
X-85226Y+3885701D01*
X-555343Y+3885701D01*
X-555843Y+3886201D01*
X-651157Y+3886201D01*
X-711201Y+3826157D01*
X+1381699Y+3196135D02*
X+1381699Y+3311865D01*
X+1299865Y+3393699D01*
X+1184135Y+3393699D01*
X+1102301Y+3311865D01*
X+1102301Y+3196135D01*
X+1184135Y+3114301D01*
X+1299865Y+3114301D01*
X+1381699Y+3196135D01*
X+5307865Y+4110301D02*
X+5192135Y+4110301D01*
X+5166735Y+4135701D01*
X+4805343Y+4135701D01*
X+4749799Y+4080156D01*
X+4749799Y+3919843D01*
X+5021943Y+3647699D01*
X+5057865Y+3647699D01*
X+5083265Y+3622299D01*
X+5563843Y+3622299D01*
X+5571843Y+3614299D01*
X+5666735Y+3614299D01*
X+5679436Y+3627000D01*
X+5610301Y+3696135D01*
X+5610301Y+3732057D01*
X+5389701Y+3952657D01*
X+5389701Y+4166735D01*
X+5377000Y+4179436D01*
X+5307865Y+4110301D01*
X-3110301Y+3482057D02*
X-3110301Y+3446135D01*
X-3179436Y+3377000D01*
X-3166735Y+3364299D01*
X-2563343Y+3364299D01*
X-2389699Y+3537943D01*
X-2389699Y+3573865D01*
X-2327863Y+3635701D01*
X-2416735Y+3635701D01*
X-2442135Y+3610301D01*
X-2557865Y+3610301D01*
X-2583265Y+3635701D01*
X-2714343Y+3635701D01*
X-2777843Y+3699201D01*
X-2893157Y+3699201D01*
X-3110301Y+3482057D01*
X+5070564Y+3381000D02*
X+5083265Y+3368299D01*
X+5508343Y+3368299D01*
X+5516344Y+3360298D01*
X+5666735Y+3360298D01*
X+5679436Y+3373000D01*
X+5666735Y+3385701D01*
X+5477157Y+3385701D01*
X+5469157Y+3393701D01*
X+5083265Y+3393701D01*
X+5070564Y+3381000D01*
X-3378201Y+3319363D02*
X-3320564Y+3377000D01*
X-3378201Y+3434637D01*
X-3378201Y+3319363D01*
X+5820564Y+3373000D02*
X+5885701Y+3307863D01*
X+5885701Y+3385701D01*
X+5833265Y+3385701D01*
X+5820564Y+3373000D01*
X+1889699Y+2978056D02*
X+1889699Y+2942135D01*
X+1855863Y+2908299D01*
X+1984657Y+2908299D01*
X+2175157Y+3098799D01*
X+3412843Y+3098799D01*
X+3603343Y+2908299D01*
X+3644137Y+2908299D01*
X+3610301Y+2942135D01*
X+3610301Y+2978057D01*
X+3452585Y+3135772D01*
X+3452585Y+3334253D01*
X+3408637Y+3378201D01*
X+3315363Y+3378201D01*
X+3381699Y+3311865D01*
X+3381699Y+3196135D01*
X+3299865Y+3114301D01*
X+3184135Y+3114301D01*
X+3102301Y+3196135D01*
X+3102301Y+3311865D01*
X+3168637Y+3378201D01*
X+2289843Y+3378201D01*
X+1889699Y+2978056D01*
X-3378201Y+3110299D02*
X-3333265Y+3110299D01*
X-3320564Y+3123000D01*
X-3378201Y+3180637D01*
X-3378201Y+3110299D01*
X+3855863Y+2908299D02*
X+3886201Y+2908299D01*
X+3886201Y+2938637D01*
X+3855863Y+2908299D01*
X-942135Y+3860301D02*
X-978057Y+3860301D01*
X-1436657Y+3401701D01*
X-1666735Y+3401701D01*
X-1692135Y+3376301D01*
X-1807865Y+3376301D01*
X-1889699Y+3458135D01*
X-1889699Y+3494057D01*
X-2031343Y+3635701D01*
X-2172137Y+3635701D01*
X-2110301Y+3573865D01*
X-2110301Y+3458135D01*
X-2135701Y+3432735D01*
X-2135701Y+2968343D01*
X-2012157Y+2844799D01*
X-1984657Y+2844799D01*
X-1968500Y+2828642D01*
X-1952343Y+2844799D01*
X-939799Y+2844799D01*
X-939799Y+3862637D01*
X-942135Y+3860301D01*
X+1381699Y+2803865D02*
X+1381699Y+2688135D01*
X+1356299Y+2662735D01*
X+1356299Y+2031843D01*
X+1373001Y+2015141D01*
X+1373001Y+2068605D01*
X+1447395Y+2142999D01*
X+1552605Y+2142999D01*
X+1565305Y+2130299D01*
X+3920844Y+2130299D01*
X+3987799Y+2063344D01*
X+3987799Y+1863441D01*
X+3988657Y+1864299D01*
X+4432735Y+1864299D01*
X+4458135Y+1889699D01*
X+4573865Y+1889699D01*
X+4655699Y+1807865D01*
X+4655699Y+1692135D01*
X+4573865Y+1610301D01*
X+4458135Y+1610301D01*
X+4432735Y+1635701D01*
X+4083343Y+1635701D01*
X+4022442Y+1574799D01*
X+4356843Y+1574799D01*
X+4614299Y+1317344D01*
X+4614299Y+833265D01*
X+4639699Y+807865D01*
X+4639699Y+692135D01*
X+4589449Y+641885D01*
X+4711701Y+641885D01*
X+4711701Y+2044701D01*
X+4032400Y+2044701D01*
X+3965445Y+2111657D01*
X+3798868Y+2278234D01*
X+3548124Y+2278234D01*
X+3220057Y+2606301D01*
X+3184135Y+2606301D01*
X+3102301Y+2688135D01*
X+3102301Y+2803865D01*
X+3168637Y+2870201D01*
X+2269843Y+2870201D01*
X+2079343Y+2679701D01*
X+1540157Y+2679701D01*
X+1349657Y+2870201D01*
X+1315363Y+2870201D01*
X+1381699Y+2803865D01*
X-1854201Y+2614299D02*
X-1851226Y+2614299D01*
X-1849324Y+2616201D01*
X-1854201Y+2616201D01*
X-1854201Y+2614299D01*
X+5820564Y+3627000D02*
X+5833265Y+3614299D01*
X+6047343Y+3614299D01*
X+6114299Y+3547343D01*
X+6114299Y+2702657D01*
X+5889699Y+2478057D01*
X+5889699Y+2442135D01*
X+5807865Y+2360301D01*
X+5692135Y+2360301D01*
X+5610301Y+2442135D01*
X+5610301Y+2557865D01*
X+5692135Y+2639699D01*
X+5728058Y+2639699D01*
X+5768060Y+2679701D01*
X+4016656Y+2679702D01*
X+4000500Y+2695858D01*
X+3984343Y+2679701D01*
X+3508657Y+2679701D01*
X+3318157Y+2870201D01*
X+3315363Y+2870201D01*
X+3381699Y+2803865D01*
X+3381699Y+2767943D01*
X+3642811Y+2506832D01*
X+3893554Y+2506832D01*
X+4127087Y+2273299D01*
X+4405522Y+2273299D01*
X+4405522Y+2333164D01*
X+4594301Y+2521943D01*
X+4594301Y+2557865D01*
X+4676135Y+2639699D01*
X+4791865Y+2639699D01*
X+4873699Y+2557865D01*
X+4873699Y+2442135D01*
X+4791865Y+2360301D01*
X+4755943Y+2360301D01*
X+4668941Y+2273299D01*
X+4873344Y+2273299D01*
X+4940299Y+2206344D01*
X+4940299Y+1601941D01*
X+5110301Y+1771943D01*
X+5110301Y+1807865D01*
X+5192135Y+1889699D01*
X+5307865Y+1889699D01*
X+5389699Y+1807865D01*
X+5389699Y+1692135D01*
X+5307865Y+1610301D01*
X+5271943Y+1610301D01*
X+5130799Y+1469157D01*
X+5130799Y+812363D01*
X+5192135Y+873699D01*
X+5307865Y+873699D01*
X+5333265Y+848299D01*
X+5345844Y+848299D01*
X+5473701Y+720441D01*
X+5473701Y+885343D01*
X+5610301Y+1021943D01*
X+5610301Y+1057865D01*
X+5692135Y+1139699D01*
X+5807865Y+1139699D01*
X+5889699Y+1057865D01*
X+5889699Y+942135D01*
X+5807865Y+860301D01*
X+5771943Y+860301D01*
X+5702299Y+790657D01*
X+5702299Y-778157D01*
X+5715000Y-790858D01*
X+5858157Y-647701D01*
X+6048657Y-647701D01*
X+6172201Y-524157D01*
X+6172201Y+3516157D01*
X+6048657Y+3639701D01*
X+5833265Y+3639701D01*
X+5820564Y+3627000D01*
X+147699Y+2478057D02*
X+147699Y+2442135D01*
X+65865Y+2360301D01*
X-49865Y+2360301D01*
X-119000Y+2429436D01*
X-164934Y+2383502D01*
X-164934Y+2379382D01*
X-122351Y+2336799D01*
X+590843Y+2336799D01*
X+784643Y+2142999D01*
X+802605Y+2142999D01*
X+838201Y+2107403D01*
X+838201Y+2679701D01*
X+349343Y+2679701D01*
X+147699Y+2478057D01*
X+1552605Y+1889001D02*
X+1499141Y+1889001D01*
X+1507843Y+1880299D01*
X+2184695Y+1880299D01*
X+2197395Y+1892999D01*
X+2302605Y+1892999D01*
X+2315305Y+1880299D01*
X+3095343Y+1880299D01*
X+3356299Y+1619343D01*
X+3356299Y+827305D01*
X+3368999Y+814605D01*
X+3368999Y+796641D01*
X+3369001Y+796643D01*
X+3369001Y+814605D01*
X+3381701Y+827305D01*
X+3381701Y+1317343D01*
X+3385701Y+1321343D01*
X+3385701Y+1666735D01*
X+3360301Y+1692135D01*
X+3360301Y+1807865D01*
X+3442135Y+1889699D01*
X+3557865Y+1889699D01*
X+3639699Y+1807865D01*
X+3639699Y+1692135D01*
X+3614299Y+1666735D01*
X+3614299Y+1226657D01*
X+3610299Y+1222657D01*
X+3610299Y+827305D01*
X+3622999Y+814605D01*
X+3622999Y+709395D01*
X+3548605Y+635001D01*
X+3530643Y+635001D01*
X+3022641Y+126999D01*
X+3040605Y+126999D01*
X+3114999Y+52605D01*
X+3114999Y-52605D01*
X+3102299Y-65305D01*
X+3102299Y-386774D01*
X+3152399Y-436874D01*
X+3152399Y-563126D01*
X+3063126Y-652399D01*
X+2936874Y-652399D01*
X+2847601Y-563126D01*
X+2847601Y-436874D01*
X+2873702Y-410773D01*
X+2873702Y-65306D01*
X+2861001Y-52605D01*
X+2861001Y-34642D01*
X+2614299Y-281344D01*
X+2614299Y-416735D01*
X+2639699Y-442135D01*
X+2639699Y-557865D01*
X+2557865Y-639699D01*
X+2521943Y-639699D01*
X+2005940Y-1155702D01*
X+2147553Y-1155702D01*
X+2395105Y-908150D01*
X+2913421Y-908150D01*
X+3247502Y-574069D01*
X+3514289Y-574069D01*
X+3623001Y-465357D01*
X+3623001Y-447395D01*
X+3635701Y-434695D01*
X+3635701Y-65305D01*
X+3623001Y-52605D01*
X+3623001Y-34641D01*
X+3622999Y-34643D01*
X+3622999Y-52605D01*
X+3548605Y-126999D01*
X+3443395Y-126999D01*
X+3369001Y-52605D01*
X+3369001Y-34641D01*
X+3368999Y-34643D01*
X+3368999Y-52605D01*
X+3294605Y-126999D01*
X+3189395Y-126999D01*
X+3115001Y-52605D01*
X+3115001Y+52605D01*
X+3189395Y+126999D01*
X+3207357Y+126999D01*
X+3715359Y+635001D01*
X+3697395Y+635001D01*
X+3623001Y+709395D01*
X+3623001Y+814605D01*
X+3697395Y+888999D01*
X+3715357Y+888999D01*
X+3940657Y+1114299D01*
X+4166735Y+1114299D01*
X+4192135Y+1139699D01*
X+4228057Y+1139699D01*
X+4348358Y+1260000D01*
X+4262157Y+1346201D01*
X+3826157Y+1346201D01*
X+3759201Y+1413157D01*
X+3759201Y+1901701D01*
X+1565305Y+1901701D01*
X+1552605Y+1889001D01*
X+1066799Y+2746657D02*
X+1066799Y+1761843D01*
X+1384299Y+1444343D01*
X+1384299Y+1063903D01*
X+1447395Y+1126999D01*
X+1552605Y+1126999D01*
X+1565305Y+1114299D01*
X+2797343Y+1114299D01*
X+3022643Y+888999D01*
X+3040605Y+888999D01*
X+3114999Y+814605D01*
X+3114999Y+709395D01*
X+3040605Y+635001D01*
X+2935395Y+635001D01*
X+2861001Y+709395D01*
X+2861001Y+727357D01*
X+2702657Y+885701D01*
X+1614299Y+885701D01*
X+1614299Y+567265D01*
X+1639699Y+541865D01*
X+1639699Y+426135D01*
X+1557865Y+344301D01*
X+1442135Y+344301D01*
X+1384299Y+402137D01*
X+1384299Y+277343D01*
X+1614299Y+47343D01*
X+1614299Y-256059D01*
X+1823855Y-46503D01*
X+1823855Y+485497D01*
X+2123001Y+784643D01*
X+2123001Y+802605D01*
X+2197395Y+876999D01*
X+2302605Y+876999D01*
X+2376999Y+802605D01*
X+2376999Y+697395D01*
X+2364299Y+684695D01*
X+2364299Y+351226D01*
X+2402399Y+313126D01*
X+2402399Y+186874D01*
X+2313126Y+97601D01*
X+2186874Y+97601D01*
X+2097601Y+186874D01*
X+2097601Y+313126D01*
X+2135701Y+351226D01*
X+2135701Y+474059D01*
X+2052453Y+390811D01*
X+2052453Y-141189D01*
X+1639699Y-553943D01*
X+1639699Y-589865D01*
X+1557865Y-671699D01*
X+1442135Y-671699D01*
X+1416735Y-646299D01*
X+23343Y-646299D01*
X-203201Y-872844D01*
X-203201Y-1164843D01*
X-472201Y-1433843D01*
X-472201Y-1523647D01*
X-576353Y-1627799D01*
X-723647Y-1627799D01*
X-827799Y-1523647D01*
X-827799Y-1376353D01*
X-723647Y-1272201D01*
X-633843Y-1272201D01*
X-431799Y-1070157D01*
X-431799Y-939799D01*
X-781343Y-939799D01*
X-848299Y-872843D01*
X-848299Y-583265D01*
X-873699Y-557865D01*
X-873699Y-442135D01*
X-799862Y-368298D01*
X-968656Y-368298D01*
X-1135701Y-535343D01*
X-1135701Y-1112853D01*
X-1072201Y-1176353D01*
X-1072201Y-1323647D01*
X-1176353Y-1427799D01*
X-1323647Y-1427799D01*
X-1409701Y-1341745D01*
X-1409701Y-1778658D01*
X-666157Y-2522201D01*
X-576353Y-2522201D01*
X-472201Y-2626353D01*
X-472201Y-2773647D01*
X-568755Y-2870201D01*
X-364843Y-2870201D01*
X-241299Y-2746657D01*
X-241299Y-1222657D01*
X+16157Y-965201D01*
X+1873157Y-965201D01*
X+2360301Y-478057D01*
X+2360301Y-442135D01*
X+2385701Y-416735D01*
X+2385701Y-186657D01*
X+3207359Y+635001D01*
X+3189395Y+635001D01*
X+3115001Y+709395D01*
X+3115001Y+814605D01*
X+3127701Y+827305D01*
X+3127701Y+1524657D01*
X+3000657Y+1651701D01*
X+2315305Y+1651701D01*
X+2302605Y+1639001D01*
X+2197395Y+1639001D01*
X+2184695Y+1651701D01*
X+1413157Y+1651701D01*
X+1127701Y+1937157D01*
X+1127701Y+2662735D01*
X+1102301Y+2688135D01*
X+1102301Y+2782159D01*
X+1066799Y+2746657D01*
X-1097601Y+2579126D02*
X-1097601Y+2452874D01*
X-1135701Y+2414774D01*
X-1135701Y+1877657D01*
X-1155701Y+1857657D01*
X-1155701Y+1825343D01*
X-939799Y+1609441D01*
X-939799Y+2616201D01*
X-1134676Y+2616201D01*
X-1097601Y+2579126D01*
X-2362201Y+1355441D02*
X-2117441Y+1600201D01*
X-2362201Y+1600201D01*
X-2362201Y+1355441D01*
X+4307865Y+860301D02*
X+4192135Y+860301D01*
X+4166735Y+885701D01*
X+4035343Y+885701D01*
X+3876999Y+727357D01*
X+3876999Y+709395D01*
X+3809489Y+641885D01*
X+4410551Y+641885D01*
X+4360301Y+692135D01*
X+4360301Y+807865D01*
X+4385701Y+833265D01*
X+4385701Y+938137D01*
X+4307865Y+860301D01*
X-385701Y+913156D02*
X-385701Y+583265D01*
X-373000Y+570564D01*
X-360299Y+583265D01*
X-360299Y+809343D01*
X-77441Y+1092201D01*
X-206656Y+1092201D01*
X-385701Y+913156D01*
X+784643Y+1126999D02*
X+802605Y+1126999D01*
X+876999Y+1052605D01*
X+876999Y+947395D01*
X+802605Y+873001D01*
X+697395Y+873001D01*
X+623001Y+947395D01*
X+623001Y+965357D01*
X+496157Y+1092201D01*
X+337403Y+1092201D01*
X+376999Y+1052605D01*
X+376999Y+947395D01*
X+302605Y+873001D01*
X+197395Y+873001D01*
X+184695Y+885701D01*
X+39343Y+885701D01*
X-131701Y+714657D01*
X-131701Y+583265D01*
X-119000Y+570564D01*
X-49865Y+639699D01*
X+65865Y+639699D01*
X+86319Y+619245D01*
X+364968Y+619245D01*
X+621202Y+363011D01*
X+621202Y+268325D01*
X+213175Y-139702D01*
X+841656Y-139702D01*
X+965201Y-16157D01*
X+965201Y+1159157D01*
X+841657Y+1282701D01*
X+628941Y+1282701D01*
X+784643Y+1126999D01*
X+1384299Y+565863D02*
X+1385701Y+567265D01*
X+1385701Y+934695D01*
X+1384299Y+936097D01*
X+1384299Y+565863D01*
X-838202Y+508000D02*
X-838202Y+460656D01*
X-854358Y+444500D01*
X-714657Y+304799D01*
X-272764Y+304799D01*
X-360299Y+392334D01*
X-360299Y+416735D01*
X-373000Y+429436D01*
X-442135Y+360301D01*
X-557865Y+360301D01*
X-639699Y+442135D01*
X-639699Y+557865D01*
X-614298Y+583265D01*
X-614298Y+1007844D01*
X-339441Y+1282701D01*
X-682343Y+1282701D01*
X-838202Y+1438560D01*
X-838202Y+508000D01*
X+4940299Y+571500D02*
X+4940299Y+524156D01*
X+4829430Y+413287D01*
X+3816929Y+413287D01*
X+3746641Y+342998D01*
X+4651242Y+342998D01*
X+4672542Y+364298D01*
X+5135701Y+364298D01*
X+5135701Y+417657D01*
X+4940299Y+613059D01*
X+4940299Y+571500D01*
X+65865Y+360301D02*
X-4982Y+360301D01*
X+44208Y+311111D01*
X+44208Y+143157D01*
X-22748Y+76201D01*
X-809343Y+76201D01*
X-1016000Y+282858D01*
X-1163157Y+135701D01*
X-1632774Y+135701D01*
X-1670874Y+97601D01*
X-1777459Y+97601D01*
X-1730657Y+50799D01*
X+80392Y+50799D01*
X+345261Y+315668D01*
X+270282Y+390647D01*
X+96211Y+390647D01*
X+65865Y+360301D01*
X-1123001Y+1447395D02*
X-1197395Y+1373001D01*
X-1302605Y+1373001D01*
X-1315305Y+1385701D01*
X-1385701Y+1385701D01*
X-1385701Y+1101226D01*
X-1347601Y+1063126D01*
X-1347601Y+936874D01*
X-1436874Y+847601D01*
X-1563126Y+847601D01*
X-1652399Y+936874D01*
X-1652399Y+1063126D01*
X-1614299Y+1101226D01*
X-1614299Y+1385701D01*
X-2008657Y+1385701D01*
X-2171701Y+1222657D01*
X-2171701Y-385701D01*
X-2083265Y-385701D01*
X-2057865Y-360301D01*
X-1942135Y-360301D01*
X-1875000Y-427436D01*
X-1807865Y-360301D01*
X-1692135Y-360301D01*
X-1638299Y-414137D01*
X-1638299Y-177799D01*
X-1825343Y-177799D01*
X-2114299Y+111157D01*
X-2114299Y+934695D01*
X-2126999Y+947395D01*
X-2126999Y+1052605D01*
X-2052605Y+1126999D01*
X-1947395Y+1126999D01*
X-1873001Y+1052605D01*
X-1873001Y+947395D01*
X-1885701Y+934695D01*
X-1885701Y+313824D01*
X-1797126Y+402399D01*
X-1670874Y+402399D01*
X-1632774Y+364299D01*
X-1257843Y+364299D01*
X-1066798Y+555344D01*
X-1066798Y+1413156D01*
X-1123001Y+1469359D01*
X-1123001Y+1447395D01*
X+5364299Y+333265D02*
X+5389699Y+307865D01*
X+5389699Y+192135D01*
X+5307865Y+110301D01*
X+5192135Y+110301D01*
X+5166735Y+135701D01*
X+4767230Y+135701D01*
X+4745928Y+114400D01*
X+3815204Y+114400D01*
X+3876999Y+52605D01*
X+3876999Y-52605D01*
X+3864299Y-65305D01*
X+3864299Y-385701D01*
X+4218657Y-385701D01*
X+4373001Y-231357D01*
X+4373001Y-213395D01*
X+4447395Y-139001D01*
X+4552605Y-139001D01*
X+4626999Y-213395D01*
X+4626999Y-318605D01*
X+4552605Y-392999D01*
X+4534643Y-392999D01*
X+4313343Y-614299D01*
X+3815305Y-614299D01*
X+3802605Y-626999D01*
X+3784643Y-626999D01*
X+3608976Y-802667D01*
X+3342188Y-802667D01*
X+3008107Y-1136748D01*
X+2489791Y-1136748D01*
X+2242241Y-1384299D01*
X+301344Y-1384299D01*
X+177799Y-1507843D01*
X+177799Y-1829988D01*
X+206657Y-1801131D01*
X+436560Y-1571227D01*
X+1300651Y-1571227D01*
X+1515693Y-1786269D01*
X+1515693Y-2072051D01*
X+2079343Y-2635701D01*
X+2250687Y-2635701D01*
X+2082945Y-2467959D01*
X+2082945Y-2251413D01*
X+2084358Y-2250000D01*
X+1945253Y-2110895D01*
X+1752429Y-2110895D01*
X+1693977Y-1969779D01*
X+1936555Y-1727201D01*
X+2937157Y-1727201D01*
X+3470559Y-1193799D01*
X+3412843Y-1193799D01*
X+2976343Y-1630299D01*
X+2583265Y-1630299D01*
X+2557865Y-1655699D01*
X+2442135Y-1655699D01*
X+2360301Y-1573865D01*
X+2360301Y-1458135D01*
X+2442135Y-1376301D01*
X+2557865Y-1376301D01*
X+2583265Y-1401701D01*
X+2881657Y-1401701D01*
X+3318157Y-965201D01*
X+4130843Y-965201D01*
X+4299344Y-1133702D01*
X+4756786Y-1133702D01*
X+5071312Y-1448228D01*
X+5071312Y-1495572D01*
X+5071313Y-1869749D01*
X+5131000Y-1929436D01*
X+5143701Y-1916735D01*
X+5143701Y-1388843D01*
X+5135702Y-1380844D01*
X+5135702Y-849266D01*
X+5110301Y-823865D01*
X+5110301Y-708135D01*
X+5192135Y-626301D01*
X+5307865Y-626301D01*
X+5389699Y-708135D01*
X+5389699Y-823865D01*
X+5364299Y-849265D01*
X+5364299Y-1286157D01*
X+5372299Y-1294157D01*
X+5372299Y-1916735D01*
X+5397699Y-1942135D01*
X+5397699Y-1978057D01*
X+5593065Y-2173423D01*
X+5593065Y-2297343D01*
X+5526109Y-2364299D01*
X+2837265Y-2364299D01*
X+2811865Y-2389699D01*
X+2696135Y-2389699D01*
X+2627000Y-2320564D01*
X+2557865Y-2389699D01*
X+2442135Y-2389699D01*
X+2373000Y-2320564D01*
X+2315917Y-2377647D01*
X+2363971Y-2425701D01*
X+4587343Y-2425701D01*
X+4771943Y-2610301D01*
X+4807865Y-2610301D01*
X+4889699Y-2692135D01*
X+4889699Y-2807865D01*
X+4880299Y-2817265D01*
X+4880299Y-3166735D01*
X+4905699Y-3192135D01*
X+4905699Y-3307865D01*
X+4823865Y-3389699D01*
X+4708135Y-3389699D01*
X+4626301Y-3307865D01*
X+4626301Y-3192135D01*
X+4651701Y-3166735D01*
X+4651701Y-2849265D01*
X+4610301Y-2807865D01*
X+4610301Y-2771943D01*
X+4492657Y-2654299D01*
X+3835863Y-2654299D01*
X+3873699Y-2692135D01*
X+3873699Y-2807865D01*
X+3791865Y-2889699D01*
X+3676135Y-2889699D01*
X+3650735Y-2864299D01*
X+2061941Y-2864299D01*
X+2333343Y-3135701D01*
X+3666735Y-3135701D01*
X+3692135Y-3110301D01*
X+3807865Y-3110301D01*
X+3889699Y-3192135D01*
X+3889699Y-3228057D01*
X+4103343Y-3441701D01*
X+5540657Y-3441701D01*
X+5664202Y-3318156D01*
X+5664202Y-1063344D01*
X+5473701Y-872843D01*
X+5473701Y+397157D01*
X+5364299Y+506559D01*
X+5364299Y+333265D01*
X-3123001Y+1556605D02*
X-3123001Y+1451395D01*
X-3197395Y+1377001D01*
X-3302605Y+1377001D01*
X-3315305Y+1389701D01*
X-3378201Y+1389701D01*
X-3378201Y-587657D01*
X-3254657Y-711201D01*
X-2738657Y-711201D01*
X-2556156Y-893701D01*
X-2523843Y-893701D01*
X-2400299Y-770157D01*
X-2400299Y-61941D01*
X-2822201Y-483843D01*
X-2822201Y-573647D01*
X-2926353Y-677799D01*
X-3073647Y-677799D01*
X-3177799Y-573647D01*
X-3177799Y-426353D01*
X-3073647Y-322201D01*
X-2983843Y-322201D01*
X-2590799Y+70843D01*
X-2590799Y+1600201D01*
X-3166597Y+1600201D01*
X-3123001Y+1556605D01*
X-3376999Y+1302605D02*
X-3376999Y+1197395D01*
X-3302605Y+1123001D01*
X-3284643Y+1123001D01*
X-2864299Y+702657D01*
X-2864299Y+351226D01*
X-2902399Y+313126D01*
X-2902399Y+186874D01*
X-2813126Y+97601D01*
X-2686874Y+97601D01*
X-2597601Y+186874D01*
X-2597601Y+313126D01*
X-2635701Y+351226D01*
X-2635701Y+797343D01*
X-3123001Y+1284643D01*
X-3123001Y+1302605D01*
X-3197395Y+1376999D01*
X-3302605Y+1376999D01*
X-3376999Y+1302605D01*
X+1193799Y-63500D02*
X+1193799Y-110843D01*
X+936344Y-368298D01*
X-668138Y-368298D01*
X-594301Y-442135D01*
X-594301Y-557865D01*
X-619701Y-583265D01*
X-619701Y-711201D01*
X-364843Y-711201D01*
X-71343Y-417701D01*
X+1385701Y-417701D01*
X+1385701Y-47343D01*
X+1193799Y+144559D01*
X+1193799Y-63500D01*
X-1409701Y-1158255D02*
X-1364299Y-1112853D01*
X-1364299Y-440657D01*
X-1101441Y-177799D01*
X-1409701Y-177799D01*
X-1409701Y-1158255D01*
X-12701Y-1317343D02*
X-12701Y-1375059D01*
X+168559Y-1193799D01*
X+110843Y-1193799D01*
X-12701Y-1317343D01*
X+4411072Y-1499430D02*
X+4411073Y-1499430D01*
X+4478028Y-1566385D01*
X+4478028Y-1822122D01*
X+4541607Y-1885701D01*
X+4666735Y-1885701D01*
X+4692135Y-1860301D01*
X+4807865Y-1860301D01*
X+4842716Y-1895152D01*
X+4842716Y-1542916D01*
X+4662099Y-1362299D01*
X+4273941Y-1362299D01*
X+4411072Y-1499430D01*
X+3069941Y-1917701D02*
X+3512157Y-1917701D01*
X+3635701Y-1794157D01*
X+3635701Y-1599265D01*
X+3610301Y-1573865D01*
X+3610301Y-1458135D01*
X+3684138Y-1384298D01*
X+3603344Y-1384298D01*
X+3069941Y-1917701D01*
X+368299Y-1962773D02*
X+368299Y-2027409D01*
X+459734Y-1935974D01*
X+459734Y-1897318D01*
X+526690Y-1830362D01*
X+1028005Y-1830362D01*
X+1094960Y-1897318D01*
X+1287095Y-2089453D01*
X+1287095Y-1880956D01*
X+1205964Y-1799825D01*
X+531247Y-1799825D01*
X+368299Y-1962773D01*
X-1735701Y-1253843D02*
X-1735701Y-1312853D01*
X-1672201Y-1376353D01*
X-1672201Y-1523647D01*
X-1776353Y-1627799D01*
X-1923647Y-1627799D01*
X-1987147Y-1564299D01*
X-3191156Y-1564298D01*
X-3314701Y-1687842D01*
X-3314701Y-2454559D01*
X-3285844Y-2425702D01*
X-3114299Y-2425702D01*
X-3114299Y-2319305D01*
X-3126999Y-2306605D01*
X-3126999Y-2201395D01*
X-3052605Y-2127001D01*
X-2947395Y-2127001D01*
X-2873001Y-2201395D01*
X-2873001Y-2306605D01*
X-2885701Y-2319305D01*
X-2885701Y-2425701D01*
X-2623265Y-2425701D01*
X-2557865Y-2360301D01*
X-2442135Y-2360301D01*
X-2400299Y-2402137D01*
X-2400299Y-2269843D01*
X-2555843Y-2114299D01*
X-2934695Y-2114299D01*
X-2947395Y-2126999D01*
X-3052605Y-2126999D01*
X-3126999Y-2052605D01*
X-3126999Y-1947395D01*
X-3052605Y-1873001D01*
X-2947395Y-1873001D01*
X-2934695Y-1885701D01*
X-2461157Y-1885701D01*
X-2171701Y-2175157D01*
X-2171701Y-2746657D01*
X-2048157Y-2870201D01*
X-1931245Y-2870201D01*
X-2027799Y-2773647D01*
X-2027799Y-2626353D01*
X-1923647Y-2522201D01*
X-1776353Y-2522201D01*
X-1672201Y-2626353D01*
X-1672201Y-2773647D01*
X-1768755Y-2870201D01*
X-731245Y-2870201D01*
X-827799Y-2773647D01*
X-827799Y-2683844D01*
X-1638299Y-1873344D01*
X-1638299Y-1156441D01*
X-1735701Y-1253843D01*
X+2267943Y-2110301D02*
X+2303865Y-2110301D01*
X+2324123Y-2130559D01*
X+2324123Y-2038906D01*
X+2407230Y-1955799D01*
X+2113441Y-1955799D01*
X+2267943Y-2110301D01*
X+4811863Y-2135701D02*
X+4942137Y-2135701D01*
X+4877000Y-2070564D01*
X+4811863Y-2135701D01*
X+5065863Y-2135701D02*
X+5196137Y-2135701D01*
X+5131000Y-2070564D01*
X+5065863Y-2135701D01*
X+3889699Y-1458135D02*
X+3889699Y-1573865D01*
X+3864299Y-1599265D01*
X+3864299Y-1888843D01*
X+3617441Y-2135702D01*
X+3885701Y-2135702D01*
X+3885701Y-2083265D01*
X+3860301Y-2057865D01*
X+3860301Y-1942135D01*
X+3942135Y-1860301D01*
X+4057865Y-1860301D01*
X+4139699Y-1942135D01*
X+4139699Y-2057865D01*
X+4114299Y-2083265D01*
X+4114299Y-2135701D01*
X+4688137Y-2135701D01*
X+4666735Y-2114299D01*
X+4446921Y-2114299D01*
X+4249430Y-1916808D01*
X+4249430Y-1661072D01*
X+3972656Y-1384298D01*
X+3815862Y-1384298D01*
X+3889699Y-1458135D01*
X+654854Y-2064138D02*
X+606299Y-2112693D01*
X+606299Y-2166735D01*
X+619000Y-2179436D01*
X+688135Y-2110301D01*
X+803865Y-2110301D01*
X+873000Y-2179436D01*
X+942135Y-2110301D01*
X+984659Y-2110301D01*
X+933318Y-2058960D01*
X+660032Y-2058960D01*
X+654854Y-2064138D01*
X+2627000Y-2179436D02*
X+2685598Y-2120838D01*
X+2568402Y-2120838D01*
X+2627000Y-2179436D01*
X+549865Y-2389699D02*
X+434135Y-2389699D01*
X+368299Y-2323863D01*
X+368299Y-2459319D01*
X+516143Y-2607163D01*
X+530101Y-2593205D01*
X+530101Y-2429156D01*
X+597057Y-2362201D01*
X+628848Y-2330412D01*
X+619000Y-2320564D01*
X+549865Y-2389699D01*
X-3124202Y-2694598D02*
X-3083903Y-2654299D01*
X-3124202Y-2654299D01*
X-3124202Y-2694598D01*
X-3124202Y-2889702D02*
X-3065305Y-2889702D01*
X-3052605Y-2877001D01*
X-2947395Y-2877001D01*
X-2873001Y-2951395D01*
X-2873001Y-3056605D01*
X-2947395Y-3130999D01*
X-3052605Y-3130999D01*
X-3065305Y-3118299D01*
X-3285844Y-3118298D01*
X-3314701Y-3089441D01*
X-3314701Y-3127657D01*
X-3191157Y-3251201D01*
X-2390941Y-3251201D01*
X-2777843Y-2864299D01*
X-2934695Y-2864299D01*
X-2947395Y-2876999D01*
X-3052605Y-2876999D01*
X-3124202Y-2805402D01*
X-3124202Y-2889702D01*
X-2442135Y-2639699D02*
X-2478057Y-2639699D01*
X-2492657Y-2654299D01*
X-2664559Y-2654299D01*
X-2258157Y-3060701D01*
X-2180941Y-3060701D01*
X-2400299Y-2841343D01*
X-2400299Y-2597863D01*
X-2442135Y-2639699D01*
X-232059Y-3060701D02*
X-174343Y-3060701D01*
X-50799Y-2937157D01*
X-50799Y-2879441D01*
X-232059Y-3060701D01*
X+860299Y-2333266D02*
X+860298Y-2374900D01*
X+860298Y-2422244D01*
X+758699Y-2523843D01*
X+758699Y-2687891D01*
X+563486Y-2883104D01*
X+468800Y-2883104D01*
X+177799Y-2592103D01*
X+177799Y-3031843D01*
X-41559Y-3251201D01*
X+714657Y-3251201D01*
X+885701Y-3080157D01*
X+885701Y-2333265D01*
X+873001Y-2320565D01*
X+860299Y-2333266D01*
D13*
X+5500000Y+5750000D03*
X+5500000Y+5242000D03*
D14*
X+4250000Y+4484000D03*
X+4250000Y+5500000D03*
X+3750000Y+5516000D03*
X+3750000Y+4500000D03*
X+3250000Y+4484000D03*
X+3250000Y+5500000D03*
X+2750000Y+5516000D03*
X+2750000Y+4500000D03*
D15*
X+1250000Y+5375000D03*
X+1250000Y+4625000D03*
X-250000Y+4500000D03*
X-250000Y+5516000D03*
X-3000000Y+5750000D03*
X-3000000Y+5242000D03*
X-3000000Y+4734000D03*
D14*
X-3250000Y+3504000D03*
X-3250000Y+3250000D03*
X-3250000Y+2996000D03*
X-2250000Y+3516000D03*
D15*
X-2250000Y+2500000D03*
X-1750000Y+5500000D03*
X-1750000Y+5754000D03*
D14*
X-1750000Y+4500000D03*
X-1750000Y+4754000D03*
X-2500000Y+3750000D03*
X-2500000Y+4004000D03*
X+5750000Y+3246000D03*
X+5750000Y+3500000D03*
X+5750000Y+3754000D03*
X+5250000Y+4250000D03*
X+5504000Y+4250000D03*
X+5000000Y+3254000D03*
X+5000000Y+3508000D03*
X-1750000Y+3516000D03*
D15*
X-1750000Y+2500000D03*
D16*
X-3250000Y+2000000D03*
X-3250000Y+2254000D03*
X-3250000Y+1250000D03*
X-3250000Y+1504000D03*
X+3750000Y+0D03*
X+3496000Y+0D03*
X+3242000Y+0D03*
X+2988000Y+0D03*
X+2988000Y+762000D03*
X+3242000Y+762000D03*
X+3496000Y+762000D03*
X+3750000Y+762000D03*
D14*
X+3242000Y+3254000D03*
X+3242000Y+2746000D03*
X+3750000Y+3000000D03*
X+1242000Y+3254000D03*
X+1242000Y+2746000D03*
X+1750000Y+3000000D03*
X+5750000Y+2500000D03*
X+4734000Y+2500000D03*
X+5250000Y+1750000D03*
X+5250000Y+734000D03*
X+5250000Y-766000D03*
X+5250000Y+250000D03*
X+4500000Y+750000D03*
D16*
X+4500000Y-266000D03*
X+3750000Y-500000D03*
D14*
X+3750000Y-1516000D03*
D16*
X+2250000Y+750000D03*
X+2250000Y+1766000D03*
X+1500000Y+1000000D03*
X+1500000Y+2016000D03*
D14*
X+1500000Y-532000D03*
X+1500000Y+484000D03*
X+3500000Y+1750000D03*
X+4516000Y+1750000D03*
X+2500000Y-500000D03*
X+2500000Y-1516000D03*
X+5258000Y-2000000D03*
X+4750000Y-2000000D03*
X+5004000Y-2000000D03*
X+1000000Y-2250000D03*
X+746000Y-2250000D03*
X+492000Y-2250000D03*
X-1000000Y+4000000D03*
D15*
X+16000Y+4000000D03*
D14*
X+3750000Y-3250000D03*
X+4766000Y-3250000D03*
X+4750000Y-2750000D03*
X+3734000Y-2750000D03*
X+2754000Y-2250000D03*
X+2246000Y-2250000D03*
X+2500000Y-2250000D03*
D13*
X-1850000Y-1450000D03*
X-650000Y-1450000D03*
X-1250000Y-1250000D03*
X-650000Y-2700000D03*
X-1850000Y-2700000D03*
D16*
X-3000000Y-2750000D03*
X-3000000Y-3004000D03*
X-3000000Y-2000000D03*
X-3000000Y-2254000D03*
D13*
X-3000000Y-500000D03*
X-3000000Y-1008000D03*
D14*
X-734000Y-500000D03*
X-1750000Y-500000D03*
X-500000Y+2500000D03*
X-246000Y+2500000D03*
X+8000Y+2500000D03*
X-500000Y+500000D03*
X-246000Y+500000D03*
X+8000Y+500000D03*
D16*
X+250000Y+1000000D03*
X+250000Y+2016000D03*
X+750000Y+1000000D03*
X+750000Y+2016000D03*
X-2000000Y+1000000D03*
X-2000000Y+2016000D03*
X-1250000Y+1500000D03*
D15*
X-1250000Y+2516000D03*
X-2750000Y+250000D03*
X-1734000Y+250000D03*
D17*
X-18500000Y-8250000D03*
D18*
X+2250000Y+250000D03*
X+3000000Y-500000D03*
X+500000Y+3250000D03*
X-1500000Y+1000000D03*
D17*
X+4000000Y-2000000D03*
X-2000000Y-500000D03*
X-2500000Y-2500000D03*
X+4250000Y+1000000D03*
X+5750000Y+1000000D03*
D19*
X-3750000Y-3750000D02*
X+6500000Y-3750000D01*
X+6500000Y+6750000D01*
X-3750000Y+6750000D01*
X-3750000Y-3750000D01*
M02*
